<svg xmlns="http://www.w3.org/2000/svg" width="95" viewBox="0 0 406 136" xml:space="preserve" height="32"><path fill="#FFF" d="M291 137H1V1h406v136H291m-23.5-27.09h109.923c0-11.039.062-21.841-.013-32.643-.163-23.204-15.125-38.053-38.285-38.054-91.83-.005-183.662-.011-275.493.033-3.48.002-7.002.273-10.435.84-18.736 3.099-31.641 21.29-28.406 39.87 3.195 18.35 17.352 29.949 36.714 29.954 68.332.018 136.663.002 205.995 0z"/><path fill="#E4181F" d="M267 109.91c-68.832.002-137.163.018-205.495 0-19.362-.005-33.52-11.604-36.714-29.955-3.235-18.58 9.67-36.77 28.406-39.869a64.429 64.429 0 0 1 10.435-.84c91.831-.044 183.662-.038 275.493-.033 23.16 0 38.122 14.85 38.285 38.054.075 10.802.013 21.604.013 32.643H267m4.833-33.38 9.1 9.872 3.87-4.307c-3.073-3.198-5.927-6.167-9.082-9.767-2.155-1.586-3.62-5.58-7.22-2.451-4.215 3.662-8.24 7.543-12.629 11.587l4.212 4.01c4.236-3.413 8.106-6.53 11.749-8.943m21.44 6.116c2.103 1.726 3.617 5.426 7.21 2.13 4.11-3.77 8.23-7.533 12.563-11.499l-5.47-5.492c-3.33 3.855-6.455 7.47-10.183 10.644l-9.417-10.259-4.213 4.486c3.265 3.308 6.248 6.33 9.51 9.99m48.873-5.18c.018.18.036.36-.128 1.396.41 2.773-1.597 6.888 3.58 7.103 4.59.19 9.194.04 13.88.04v-5.92h-11.897V68.99h-5.65c.166 2.821.318 5.41.215 8.476m-15.783.005 8.22 8.842 4.595-4.85c-4.158-3.946-7.964-7.824-12.106-11.3-1.008-.846-3.752-1.118-4.623-.382-4.375 3.7-8.395 7.82-12.72 11.968l4.367 3.966c3.991-3.653 7.76-7.104 11.35-9.893.199.352.398.704.917 1.649m-246.72 4.65c6.548-6.83 7.996-14.384 2.512-22.53-7.425 5.741-11.203 14.628-15.118 24.93-1.082-8.115-5.284-12.453-11.638-14.971l.712-1.37c3.673 1.574 7.346 3.147 10.835 4.64l10.612-14.225c-12.38-4.796-31.275 4.272-35.144 17.041-2.507 8.273 2.815 15.589 11.843 16.341 9.778.815 17.879-2.79 25.387-9.856M96.4 85.178c2.001-3.573 6.844-5.39 9.226-3.425l.998 4.022h5.543l-3.655-23.001c-2.637.939-5.909 1.068-6.9 2.638-4.049 6.414-7.4 13.268-11.376 20.64 2.392-.12 3.993-.2 6.164-.874m18.586-5.646 1.32 7.125c2.502-.777 5.745-.78 6.671-2.245 4.113-6.51 7.563-13.44 11.331-20.363-3.894-1.39-6.066-.516-7.528 2.943-1.502 3.554-3.537 6.883-5.343 10.317-4.505-3.831 1.91-13.586-9-13.993.907 5.619 1.692 10.486 2.549 16.216m24.48-9.49 2.817 16.438c2.554-.536 5.648-.287 6.396-1.492 4.196-6.762 7.827-13.876 12.017-21.537-10.685-.506-8.29 10.465-14.236 13.676-.488-3.148-1.253-6.053-1.32-8.974-.108-4.733-2.228-5.604-6.39-4.086.187 1.845.352 3.481.716 5.974m61.672 10.637c.359-1.962 1.343-4.075.915-5.846-.502-2.081-2.045-5.308-3.464-5.49-3.36-.433-6.92.607-10.372 1.202-.175.03-.108 1.47-.164 2.44 3.13.073 6.588-2.495 8.831 1.373-3.252.892-6.576 1.042-8.834 2.67-1.719 1.24-2.438 4.299-2.82 6.674-.103.644 2.597 2.416 4.077 2.5 3.474.198 6.988-.312 10.874-.56.255-1.257.545-2.682.957-4.963m14.592 3.87c.96-1.652 3.106-4.268 2.68-4.79-1.988-2.442-4.685-4.306-7.626-6.798 1.314-.263 2.614-.797 3.866-.7 1.382.106 2.72.79 5.554 1.693-.949-2.397-1.088-4.236-1.966-4.71-3.856-2.084-10.933-.395-12.583 2.996-3.36 6.903 4.4 5.94 6.483 10.053l-8.617-.798c-1.481 2.735-.233 4.367 2.717 4.398 2.93.03 5.866-.615 9.492-1.344m-38.844-20.774-5.324-1.521-4.529 23.802 5.435-.272c1.435-7.277 2.813-14.265 4.418-22.01m4.008-.74-4.911 22.729h5.661l4.345-23.013c-1.677 0-2.972 0-5.095.285m-16.847 19.58 2.469-13.397h-5.382l-3.087 16.22.954 1.31c1.65-1.095 3.3-2.19 5.046-4.132m74.007-18.936v-5.95l-.785.031v33.688l.785.008V63.679m-72.822 3.256 3.222-3.395-1.405-1.933-5.136 2.834c.826.832 1.652 1.664 3.32 2.494M274.466 60.6l-2.078 3.914 1.668.896c.972-1.937 2.007-3.848 2.834-5.845.097-.234-.949-.941-1.465-1.43a27.712 27.712 0 0 1-.96 2.465m-3.682 2.473-.58-3.697-1.355.45c.474 1.19.948 2.38 1.935 3.247z"/><path fill="#FEF8F8" d="M79.393 82.382c-7.257 6.806-15.358 10.411-25.136 9.596-9.028-.752-14.35-8.068-11.843-16.341 3.869-12.77 22.765-21.837 35.144-17.04L66.946 72.821l-10.835-4.64-.712 1.369c6.354 2.518 10.556 6.856 11.638 14.97 3.915-10.301 7.693-19.188 15.118-24.929 5.484 8.146 4.036 15.7-2.762 22.79m-25.58.402-1.66-3.74c2.752-.95 5.503-1.9 9.561-3.303-4.17 0-7.292-.506-10.17.116-4.587.993-5.266 4.376-1.892 7.541 3.537 3.318 9.91 4.124 13.989 2.083-2.771-.693-5.954-1.49-9.828-2.697z"/><path fill="#FEF4F4" d="M96.115 85.475c-1.885.377-3.486.457-5.878.577 3.976-7.372 7.327-14.226 11.376-20.64.991-1.57 4.263-1.7 6.9-2.638 1.334 8.396 2.47 15.55 3.655 23h-5.543l-.998-4.021c-2.382-1.964-7.225-.148-9.512 3.722z"/><path fill="#FDF1F2" d="M114.951 79.101a2497.152 2497.152 0 0 0-2.513-15.785c10.91.407 4.495 10.162 9 13.993 1.806-3.434 3.84-6.763 5.343-10.317 1.462-3.46 3.634-4.333 7.528-2.943-3.768 6.924-7.218 13.853-11.331 20.363-.926 1.466-4.169 1.468-6.67 2.245-.55-2.964-.936-5.044-1.357-7.556z"/><path fill="#FEF2F2" d="M139.367 69.613a191.07 191.07 0 0 1-.615-5.546c4.16-1.518 6.28-.647 6.39 4.086.066 2.921.831 5.826 1.32 8.974 5.946-3.21 3.55-14.182 14.235-13.676-4.19 7.661-7.82 14.775-12.017 21.537-.748 1.205-3.842.956-6.396 1.492-.995-5.806-1.906-11.123-2.917-16.867z"/><path fill="#FEF5F5" d="M201.077 81.106c-.35 1.853-.64 3.278-.895 4.535-3.886.248-7.4.758-10.874.56-1.48-.084-4.18-1.856-4.076-2.5.38-2.375 1.1-5.435 2.82-6.674 2.257-1.628 5.58-1.778 8.833-2.67-2.243-3.868-5.7-1.3-8.83-1.373.055-.97-.012-2.41.163-2.44 3.453-.595 7.012-1.635 10.372-1.202 1.42.182 2.962 3.409 3.464 5.49.428 1.771-.556 3.884-.977 6.274z"/><path fill="#FEF4F4" d="m325.625 75.162-11.529 10.554-4.368-3.966c4.326-4.147 8.346-8.268 12.721-11.968.87-.736 3.615-.464 4.623.382 4.142 3.476 7.948 7.354 12.106 11.3l-4.595 4.85c-2.877-3.095-5.549-5.969-8.376-9.324-.298-.931-.44-1.38-.582-1.828z"/><path fill="#FDEFF0" d="M215.385 84.738c-3.28.539-6.216 1.184-9.146 1.154-2.95-.03-4.198-1.663-2.717-4.398l8.617.798c-2.084-4.114-9.843-3.15-6.483-10.053 1.65-3.39 8.727-5.08 12.583-2.996.878.474 1.017 2.313 1.966 4.71-2.834-.903-4.172-1.587-5.554-1.694-1.252-.096-2.552.438-3.866.701 2.94 2.492 5.638 4.356 7.626 6.797.426.523-1.72 3.14-3.026 4.981z"/><path fill="#FEF3F3" d="m342.402 76.989-.47-7.998h5.649v11.095h11.897v5.92c-4.686 0-9.29.15-13.88-.04-5.177-.215-3.17-4.33-3.2-7.521.764-.394 1.149-.37 1.61-.206a.933.933 0 0 0 .404.249 16.61 16.61 0 0 0-.46-.767c-.613-.386-1.082-.559-1.55-.732zM176.773 64.152c-1.491 7.366-2.869 14.354-4.304 21.63-1.708.087-3.301.166-5.435.273l4.529-23.802c1.932.552 3.628 1.036 5.21 1.9z"/><path fill="#FEF4F4" d="M181.309 62.891c1.709-.142 3.004-.142 4.681-.142l-4.345 23.013h-5.661c1.658-7.674 3.284-15.201 5.325-22.87z"/><path fill="#FDF0F1" d="m297.997 78.871 9.58-11.085 5.469 5.492c-4.334 3.966-8.453 7.728-12.564 11.5-3.592 3.295-5.106-.405-7.145-2.706 1.596-1.45 3.128-2.326 4.66-3.2z"/><path fill="#FEF7F7" d="m272.06 75.825-11.976 9.65-4.212-4.011c4.388-4.044 8.414-7.925 12.628-11.587 3.6-3.129 5.066.865 7.152 3.034-1.242 1.36-2.417 2.137-3.592 2.914z"/><path fill="#FEF2F3" d="M164 83.038c-1.697 1.519-3.348 2.614-4.998 3.709l-.954-1.31 3.087-16.22h5.382c-.86 4.669-1.665 9.033-2.516 13.821z"/><path fill="#FDEFF0" d="M297.695 78.65c-1.23 1.096-2.762 1.972-4.497 3.104-3.187-2.766-6.17-5.789-9.435-9.097 1.18-1.255 2.363-2.515 4.213-4.486 3.222 3.51 6.32 6.884 9.72 10.48z"/><path fill="#FDEBEB" d="M271.947 76.178c1.288-1.13 2.463-1.907 3.856-2.952 3.073 2.702 5.927 5.671 9 8.87l-3.87 4.306c-3.136-3.402-6.118-6.636-8.986-10.224z"/><path fill="#F6AFB2" d="M238.055 64.158v27.298l-.785-.008V57.76l.785-.032v6.43z"/><path fill="#FAD7D8" d="M164.812 66.936c-1.246-.83-2.072-1.663-2.898-2.495l5.136-2.834 1.405 1.933c-1.074 1.132-2.148 2.263-3.643 3.396z"/><path fill="#E73339" d="M274.607 60.35c.367-.904.593-1.559.82-2.214.515.488 1.56 1.195 1.464 1.429-.827 1.997-1.862 3.908-2.834 5.845l-1.668-.896c.692-1.305 1.385-2.61 2.218-4.163zm-4.079 2.884c-.73-1.029-1.205-2.219-1.679-3.408l1.355-.45c.193 1.233.387 2.465.324 3.858z"/><path fill="#FCE5E6" d="M325.536 75.493c.231.118.373.566.511 1.2-.203-.166-.402-.518-.511-1.2z"/><path fill="#FDEEEE" d="M342.274 77.228c.596-.066 1.065.107 1.633.531.1.25.024.34.024.34a105.81 105.81 0 0 0-1.442-.082c-.307-.19-.325-.37-.215-.789z"/><path fill="#E72E35" d="M54.159 82.989c3.528 1.002 6.71 1.799 9.482 2.492-4.079 2.04-10.452 1.235-13.99-2.083-3.373-3.165-2.694-6.548 1.892-7.54 2.879-.623 6.001-.117 10.171-.117l-9.56 3.303c.553 1.247 1.106 2.493 2.005 3.945z"/><path fill="#FDEEEE" d="M344.051 77.971c.15.147.256.332.361.517a.933.933 0 0 1-.403-.249c-.078-.14-.002-.23.042-.268z"/></svg>