<svg width="177" height="32" viewBox="0 0 537 97" fill="none" xmlns="http://www.w3.org/2000/svg"><path d="M35.755 1.43c-7.595 0-15.047 5.987-16.708 13.425l-15 67.158C2.386 89.451 7.163 95.44 14.758 95.44h2.774l8.32-41.61h18.2l-.22 1.073.002.001c.8 5.729 4.417 9.966 11.238 11.383 9.115 1.892 18.108-4.247 21.685-12.456H97.94c-.125.46-.251.92-.398 1.38-5.734 17.922-24.709 32.18-43.952 28.183-5.44-1.13-10.215-3.504-14.172-6.756l-3.82 18.802H88.18c7.595 0 15.047-5.988 16.708-13.426l15.001-67.159c1.661-7.437-3.116-13.424-10.712-13.424h-54.48l-2.63 12.954c6.581-2.488 13.781-3.278 20.734-1.835C87.15 15.53 97.108 27.6 98.82 41.139H77.694c-1.522-5.19-5.473-9.383-11.437-10.622-7.9-1.642-15.772 3.471-19.743 10.622h-18.74c.03-.134.051-.269.084-.402l.008-.034L36.313 1.43h-.558zm105.038 29.037c-.712.008-1.424.03-2.134.008-.871.04-1.818-.155-2.614.295-.525.312-.709.936-.82 1.497-2.896 13.742-5.801 27.488-8.697 41.23-.123.524-.1 1.174.391 1.51.61.383 1.37.253 2.052.282 1.432-.034 2.87.052 4.3-.04.822-.048 1.224-.825 1.453-1.512 5.427 3.09 12.435 2.515 17.629-.798 3.729-2.388 6.953-5.73 8.839-9.777 1.495-3.293 1.977-7.08 1.167-10.62-1.136-4.951-5.567-8.891-10.577-9.53-3.624-.578-7.322.291-10.604 1.84.919-4.189 1.801-8.387 2.683-12.582.236-.727-.117-1.629-.939-1.729-.706-.076-1.417-.082-2.129-.074zm332.353.336c-1.043-.008-2.084.012-3.114.12-.671.18-1.056.826-1.17 1.47-2.882 13.642-5.753 27.29-8.638 40.932-.089.524-.245 1.175.178 1.605.476.512 1.246.417 1.882.437 1.624-.026 3.248.028 4.872-.023.861-.017 1.506-.768 1.615-1.59 2.887-13.699 5.783-27.398 8.665-41.097.306-.83-.231-1.829-1.164-1.809-1.038-.003-2.083-.037-3.126-.045zm-96.483 11.713a20.33 20.33 0 00-2.959.214c-3.673.527-7.117 2.226-9.922 4.64-3.604 3.032-6.475 7.169-7.259 11.89-.468 3.025-.36 6.265 1.027 9.048 1.667 3.402 4.967 5.93 8.674 6.665 4.688.937 9.707-.123 13.674-2.786 2.999-2.007 5.605-4.656 7.442-7.775 2.123-3.639 2.941-8.076 2.054-12.214-.859-4.063-3.98-7.506-7.866-8.877-1.563-.562-3.212-.799-4.865-.805zm-35.614.005c-2.885.056-5.76.873-8.336 2.16-.088-.656-.214-1.52-1.03-1.597-1.869-.13-3.75-.048-5.622-.046-.933-.037-1.57.818-1.667 1.675-2.816 13.28-5.636 26.563-8.455 39.841-.145.745-.39 1.48-.376 2.245.029.59.597 1.013 1.165 1.021 1.583.078 3.172 0 4.759.035.71-.026 1.53.106 2.12-.395.42-.338.533-.896.659-1.392.905-4.252 1.812-8.507 2.734-12.759a14.053 14.053 0 007.607 1.99c4.317.008 8.532-1.682 11.862-4.396 3.495-2.815 6.452-6.54 7.602-10.95.859-3.361.813-7.075-.708-10.242-1.64-3.334-4.785-5.914-8.4-6.767a15.178 15.178 0 00-3.914-.423zm-85.942.044a16.74 16.74 0 00-1.286.032c-6.423.255-12.159 4.252-15.783 9.398-2.742 3.866-3.926 8.848-3.039 13.524.759 4.026 3.733 7.496 7.511 9 2.62 1.059 5.524 1.148 8.292.778 4.725-.724 8.938-3.47 12.122-6.963.443-.547 1.047-1.217.753-1.976-.308-.61-.962-.888-1.512-1.22-1.202-.647-2.352-1.394-3.579-1.992-.619-.35-1.337-.02-1.8.432-1.235 1.145-2.603 2.202-4.212 2.757-2.323.816-5.167.544-7.017-1.191-1.481-1.335-2.036-3.45-1.788-5.392.579-4.782 5.19-8.802 10.029-8.496 1.607.049 3.196.696 4.332 1.847.613.61 1.524 1.406 2.403.776 1.658-.988 3.238-2.099 4.859-3.144.696-.415 1.329-1.3.847-2.108-.645-1.26-1.68-2.274-2.733-3.193-2.334-1.962-5.386-2.825-8.399-2.869zm33.757.142a19.91 19.91 0 00-3.583.26c-5.941.974-11.051 4.974-14.289 9.948-2.409 3.769-3.394 8.473-2.509 12.877.822 4.066 3.897 7.54 7.761 8.966 2.648 1.003 5.562 1.036 8.33.633 5.604-.92 10.427-4.608 13.685-9.152 2.774-3.849 3.984-8.826 3.102-13.508-.699-3.75-3.291-7.046-6.703-8.699-1.805-.893-3.792-1.282-5.794-1.325zm125.284.084c-3.042-.023-6.085.818-8.803 2.175-.017-.69-.225-1.58-1.064-1.618-1.789-.114-3.586-.034-5.376-.045-.847-.066-1.652.533-1.774 1.386-2.945 13.74-5.833 27.496-8.766 41.238-.103.592-.32 1.345.176 1.826.494.453 1.216.344 1.835.376 1.681-.034 3.367.045 5.048-.041.756-.046 1.304-.721 1.426-1.437.951-4.356 1.864-8.72 2.811-13.077 3.504 2.173 7.882 2.441 11.817 1.476 3.783-.913 7.162-3.114 9.873-5.88 2.637-2.615 4.728-5.889 5.527-9.554.645-3.004.594-6.246-.616-9.1-1.598-3.743-5.099-6.61-9.085-7.4a15.092 15.092 0 00-3.029-.325zm-228.044.04c-.41.005-.82.025-1.228.063-3.995.244-7.807 1.956-10.866 4.51-3.786 3.107-6.887 7.362-7.704 12.29-.413 2.735-.342 5.622.714 8.211 1.489 3.697 4.83 6.58 8.71 7.465 4.215.965 8.718.152 12.504-1.881.075.652.112 1.577.939 1.703 1.704.203 3.442.049 5.162.089.873.066 1.701-.576 1.833-1.447 1.94-9.172 3.838-18.352 5.775-27.524.132-.673.34-1.349.3-2.042-.1-.793-1.03-.964-1.684-.93-1.621.026-3.248-.063-4.865.049-.908.123-1.266 1.033-1.446 1.815-2.397-1.603-5.275-2.4-8.144-2.37zm309.167.154a18.257 18.257 0 00-5.034.702c-4.746 1.372-8.761 4.663-11.657 8.606-3.025 4.129-4.317 9.66-2.845 14.632 1.127 3.717 4.114 6.795 7.767 8.064 4.548 1.537 9.656.73 13.833-1.509.06.536-.005 1.246.54 1.56.739.373 1.602.217 2.406.249 1.247-.052 2.517.109 3.758-.097.77-.146 1.158-.93 1.272-1.643 1.986-9.47 3.989-18.938 5.972-28.407.263-.742-.233-1.624-1.049-1.616a82.374 82.374 0 00-5.314-.005c-.973.026-1.438 1.003-1.623 1.825-2.365-1.63-5.187-2.35-8.026-2.361zm34.792.053c-2.503.012-5.021.377-7.101 1.865-.068-.55-.266-1.245-.928-1.282-1.88-.106-3.769-.054-5.65-.031-.893-.015-1.489.804-1.594 1.62-1.995 9.481-4.027 18.956-6.002 28.44-.231.745.189 1.636 1.031 1.668 1.515.114 3.045.01 4.566.05.719-.025 1.498.1 2.166-.252.533-.3.749-.922.866-1.492 1.15-5.54 2.313-11.08 3.465-16.621.391-2.18 2.149-3.861 4.098-4.738 1.875-.827 3.96-.37 5.934-.546.819-.051 1.345-.83 1.447-1.589.38-1.913.84-3.811 1.18-5.73.145-.624-.391-1.23-.996-1.283a40.388 40.388 0 00-2.482-.079zm-309.464.1c-2.37.002-4.732.52-6.818 1.681-.103-.47-.211-1.042-.785-1.123-1.815-.111-3.638-.033-5.456-.042-.864-.06-1.644.593-1.772 1.444-2.012 9.47-3.99 18.947-5.993 28.42-.083.53-.254 1.185.157 1.626.477.53 1.267.43 1.909.452 1.624-.026 3.247.033 4.871-.022.873-.017 1.504-.796 1.61-1.62 1.135-5.473 2.276-10.946 3.403-16.42.523-3.534 4.27-6.252 7.777-5.616 1.338.255 2.539 1.194 3.067 2.463.445 1.054.405 2.247.194 3.35-1.116 5.277-2.217 10.558-3.33 15.839-.085.51-.223 1.142.171 1.568.394.467 1.067.447 1.623.458 1.718-.02 3.437.027 5.152-.022.816-.014 1.469-.699 1.583-1.486 1.205-5.673 2.389-11.35 3.587-17.03.554-2.865.682-6.002-.611-8.694-1.155-2.434-3.573-4.046-6.124-4.699a17.329 17.329 0 00-4.215-.526zm217.657.014c-.987 0-1.975.011-2.961.037-.847.02-1.421.802-1.512 1.59-1.213 5.75-2.471 11.488-3.661 17.24-.448 2.842-.591 5.954.816 8.56 1.361 2.543 4.092 4.055 6.854 4.562 3.35.601 6.994.407 9.999-1.334.089.507.243 1.08.865 1.105 1.906.091 3.823.043 5.732.026.816 0 1.496-.664 1.601-1.46 1.975-9.27 3.915-18.547 5.892-27.814.097-.653.397-1.39-.011-1.99-.422-.574-1.198-.5-1.817-.52-1.709.032-3.422-.042-5.125.038-.876.04-1.435.868-1.527 1.675-1.169 5.521-2.34 11.045-3.507 16.569-.551 3.318-3.997 5.724-7.282 5.338-1.258-.126-2.465-.813-3.156-1.884-.725-1.077-.833-2.464-.553-3.707 1.155-5.449 2.336-10.892 3.466-16.347.271-.779-.317-1.667-1.15-1.647-.988-.024-1.975-.037-2.963-.037zm-98.551 7.886c1.176.025 2.342.282 3.36.894 1.495.89 2.559 2.477 2.759 4.22.747 5.785-4.925 11.395-10.677 10.577-1.969-.227-3.839-1.459-4.675-3.283-.822-1.824-.685-3.96-.034-5.813 1.196-3.09 3.904-5.687 7.168-6.414a10.39 10.39 0 012.099-.181zm35.008.11a7.176 7.176 0 012.588.482c1.664.67 3.003 2.148 3.416 3.912.531 2.197-.014 4.573-1.266 6.431-1.63 2.443-4.249 4.379-7.234 4.605-2.029.217-4.22-.389-5.593-1.967-1.606-1.72-1.761-4.338-1.119-6.503 1.005-3.053 3.538-5.612 6.594-6.589a9.275 9.275 0 012.614-.371zm37.604.161c1.181.018 2.355.27 3.379.88 1.515.887 2.593 2.488 2.787 4.243.748 5.799-4.964 11.432-10.734 10.561-2.038-.243-3.95-1.595-4.727-3.522-.784-2.042-.509-4.382.401-6.338 1.341-2.698 3.809-4.959 6.788-5.626a10.298 10.298 0 012.106-.198zm-125.671.065c1.695.027 3.388.582 4.563 1.851 1.8 1.813 1.937 4.696 1.146 7.01-1.398 3.76-5.127 6.826-9.245 6.672-2.274.005-4.566-1.291-5.508-3.408-1.013-2.316-.564-5.08.734-7.187 1.487-2.36 3.842-4.307 6.635-4.797a8.58 8.58 0 011.675-.141zm-102.418.01c1.161-.02 2.323.195 3.368.714 1.807.899 3.047 2.791 3.153 4.813.37 4.31-2.753 8.367-6.677 9.824-2.234.762-4.909.748-6.884-.681-1.392-.974-2.262-2.6-2.368-4.292-.388-4.553 3.047-8.918 7.345-10.103a9.332 9.332 0 012.063-.274zm-36.741.002c1.363-.02 2.736.278 3.883 1.027 1.424.914 2.389 2.488 2.577 4.169.725 5.795-4.968 11.442-10.744 10.566-1.957-.238-3.772-1.514-4.614-3.31-.916-2.067-.647-4.507.266-6.528 1.396-2.878 4.075-5.278 7.282-5.802a9.26 9.26 0 011.35-.122zm346.241.122c1.375.04 2.734.401 3.835 1.26 1.39 1.031 2.224 2.718 2.275 4.444.249 3.98-2.511 7.66-6.003 9.292-2.129.925-4.695 1.11-6.812.06-1.715-.845-2.933-2.594-3.102-4.507-.545-4.736 3.136-9.341 7.667-10.375a10.498 10.498 0 011.55-.172c.196-.008.393-.008.59-.002z" fill="#0C863D"/></svg>