<svg width="136" height="32" viewBox="0 0 586 137" fill="none" xmlns="http://www.w3.org/2000/svg"><path d="M533.122 31c-3.69 0-6.764 3.1-6.764 6.82 0 3.812 3.074 6.828 6.764 6.828 3.778 0 6.85-3.193 6.85-6.827 0-3.81-3.072-6.821-6.85-6.821zM53.797 34.214c-13.963 1.723-27.451 4.268-40.97 8.186-1.761.554-2.845 2.523-2.402 4.273.988 3.895 1.487 5.849 2.492 9.756.425 1.652 2.087 2.5 3.772 1.94 13.813-4.252 27.661-7.161 41.95-9.279 1.637-.219 2.53-1.913 1.928-3.612a901.489 901.489 0 00-3.203-8.926c-.55-1.511-2.043-2.503-3.567-2.338zm284.835.416c-3.513 0-10.185 1.95-13.261 4.255v56.894h13.261v-61.15zm149.514 0c-3.425 0-10.19 1.95-13.266 4.255v54.328c4.392 2.038 11.684 3.453 19.239 3.453 15.461 0 24.946-9.305 24.946-25.434 0-11.522-5.359-20.651-18.449-20.651-4.127 0-8.692 1.773-12.47 5.052V34.629zm-377.472 2.127c-6.412 0-11.854.712-19.057 1.775v57.247h21.606c11.771 0 22.135-6.908 22.135-17.277 0-7.888-3.423-12.765-11.417-15.07 5.183-2.038 8.083-5.76 8.083-11.343 0-9.75-9.491-15.332-21.35-15.332zm0 11.167c5.534 0 8.084 2.568 8.084 6.201 0 3.81-2.461 6.03-7.731 6.03h-5.973V48.368c1.845-.266 3.775-.444 5.62-.444zm147.233 2.572c-13.879 0-24.598 8.155-24.598 23.665 0 14.357 8.876 22.511 22.402 22.511 3.953 0 8.958-.889 13.79-2.839l-2.372-10.632c-3.248 1.152-5.886 1.593-8.169 1.593-8.345 0-11.685-4.345-11.685-11.435 0-7.002 3.603-11.605 12.475-11.605 1.407 0 3.865.353 5.359.796 2.019-2.215 3.865-6.115 4.392-10.547-4.217-.975-7.729-1.507-11.594-1.507zm37.069 0c-13.439 0-22.926 8.864-22.926 23.045 0 14.003 8.959 23.131 22.926 23.131 13.879 0 22.926-8.863 22.926-23.13 0-13.827-8.96-23.046-22.926-23.046zm74.051 0c-13.439 0-22.926 8.864-22.926 23.045 0 14.003 8.96 23.131 22.926 23.131 13.879 0 22.927-8.863 22.927-23.13 0-13.827-8.96-23.046-22.927-23.046zm-160.055.085c-7.291 0-16.248 2.04-21.783 5.763l-.085 39.44h13.261V62.55a22.173 22.173 0 015.621-.71c5.358 0 8.436 2.39 8.436 7.088v26.857h13.175v-31.55c0-8.598-8.523-13.654-18.625-13.654zm210.129 0c-6.941 0-15.197 2.04-20.469 5.763l-.085 39.44h13.261V62.55a22.161 22.161 0 015.621-.71c5.269 0 8.26 2.39 8.26 7.088v26.857h13.09V69.548c0-2.305-.353-4.428-1.058-6.378a18.047 18.047 0 016.764-1.33c5.269 0 8.254 2.39 8.254 7.087v26.858h13.09v-31.55c0-8.509-7.461-13.654-17.038-13.654-5.269 0-11.508 1.95-15.991 4.875-3.426-3.013-8.166-4.875-13.7-4.875h.001zm114.107 0c-2.549 0-4.83.448-6.673 1.246v43.957h13.266V51.827c-1.847-.798-4.048-1.246-6.593-1.246zm-374.014.09c-5.797 0-11.153 1.421-16.6 3.46l1.053 3.185c1.406 3.9 3.074 5.234 5.182 5.234.878 0 7.642-1.155 10.189-1.155 4.832 0 7.03 1.417 7.293 6.912-14.494.443-26.703 3.546-26.703 16.22 0 8.419 7.644 12.23 16.867 12.23 10.365 0 18.007-1.952 22.75-5.586V67.864c0-12.408-7.381-17.192-20.031-17.192zm406.781 0c-5.799 0-11.153 1.421-16.6 3.46l1.053 3.185c1.404 3.9 3.073 5.234 5.182 5.234.88 0 7.64-1.155 10.189-1.155 4.829 0 7.028 1.417 7.293 6.912-14.494.443-26.709 3.546-26.709 16.22 0 8.419 7.643 12.23 16.867 12.23 10.367 0 18.008-1.952 22.75-5.586V67.864c0-12.408-7.375-17.192-20.025-17.192zm-500.499 5.23c-21.86 2.787-43.149 8.193-63.334 17.128C.67 73.726-.208 75.578.1 77.21c.791 4.177 1.19 6.267 1.997 10.45.345 1.79 2.016 2.614 3.664 1.81 20.502-9.394 42.165-15.372 64.392-18.938 1.412-.232 2.133-1.853 1.593-3.522a732.104 732.104 0 00-2.84-8.63c-.535-1.6-1.99-2.668-3.43-2.48zm429.52 5.938c6.766 0 10.979 2.923 10.979 11.076 0 7.09-3.334 13.119-11.065 13.119-2.106 0-4.393-.18-6.764-.535V63.256c1.934-.887 4.129-1.417 6.85-1.417zm-200.02.177c6.148 0 9.659 4.257 9.659 11.525 0 7.621-3.511 11.605-9.659 11.605-6.062 0-9.66-3.984-9.66-11.605 0-7.268 3.686-11.525 9.66-11.525zm74.051 0c6.149 0 9.66 4.257 9.66 11.525 0 7.621-3.511 11.605-9.66 11.605-6.061 0-9.665-3.984-9.665-11.605 0-7.268 3.692-11.525 9.665-11.525zM105.054 71.23h7.025c5.886 0 8.875 1.954 8.875 6.65 0 4.344-3.25 6.645-8.96 6.645h-6.94V71.232zm58.709 5.587h2.548v7.623c-1.318 1.151-4.128 2.213-7.555 2.213-4.304 0-6.411-1.15-6.411-4.34 0-4.166 5.445-5.496 11.418-5.496zm406.78 0h2.549v7.623c-1.317 1.151-4.129 2.213-7.555 2.213-4.305 0-6.411-1.15-6.411-4.34 0-4.166 5.444-5.496 11.417-5.496zM65.215 79.19c-13.65 2.963-26.993 6.533-40.21 11.076-1.675.616-2.618 2.384-2.178 4.011 1.05 3.877 1.576 5.822 2.64 9.711.5 1.827 2.555 2.762 4.443 2.042 13.211-4.733 26.55-8.866 40.186-12.18 1.307-.317 1.953-1.853 1.467-3.436a828.063 828.063 0 00-2.719-8.71c-.542-1.708-2.125-2.823-3.63-2.514z" fill="#000"/></svg>