<svg width="91" height="32" viewBox="0 0 541 190" fill="none" xmlns="http://www.w3.org/2000/svg"><g clip-path="url(#clip0)"><path d="M132.782 183.44c-2.86.583-5.76.957-8.674 1.118-6.164.28-7.323-2.279-7.323-11.285 0-9.005 1.173-11.625 7.323-11.346 1.827.078 5.77.908 8.676 1.202l.86-5.263a78.562 78.562 0 00-9.238-1.295c-13.682-.611-17.002 5.151-17.002 16.702 0 11.552 3.331 17.212 17.013 16.699a68.54 68.54 0 009.436-1.191l-1.071-5.341zM18.278 144.287c9.978 0 15.926 4.134 15.926 12.064 0 4.79-1.67 7.775-4.279 9.544a10.196 10.196 0 015.944 9.863c0 10.306-7.253 13.56-16.413 13.56H0v-45.031h18.278zm-9.158 6.324v12.639h9.84c4.51 0 6.064-1.85 6.064-6.895 0-4.564-1.51-5.74-6.746-5.74l-9.158-.004zm0 18.883v13.512h10.33c4.877 0 7.242-1.327 7.242-7.25 0-6.223-4.467-6.262-7.73-6.262H9.12zm32.266-11.112a67.532 67.532 0 0113.013-1.832c9.03 0 13.158 4.235 13.158 10.761v21.67a77.37 77.37 0 01-17.17.661c-7.46-.771-12.056-4.592-12.056-10.612 0-5.47 3.282-9.365 11.87-10.367 3.742-.437 8.29-.461 8.29-.461v-1.239c0-3.338-1.177-4.861-4.092-4.861a68.411 68.411 0 00-12.04 1.748l-.973-5.468zm17.105 15.191c-1.99-.01-3.978.1-5.954.33-3.09.384-4.821 1.948-4.821 5.112a4.541 4.541 0 004.079 5.086c2.217.345 4.475.345 6.692 0l.004-10.528zm92.468-17.013c10.277 0 16.368 4.95 16.368 16.162 0 11.163-3.357 17.174-16.368 17.174-12.86 0-16.633-5.262-16.633-17.288 0-11.352 5.405-16.048 16.633-16.048zm7.087 16.162c0-8.219-2.753-10.726-7.087-10.726-5.466 0-7.352 1.849-7.352 10.612 0 9.361 1.25 11.874 7.352 11.874 6.009 0 7.087-2.969 7.087-11.76zm46.148-28.397h9.04v44.82a100.69 100.69 0 01-11.922.79c-15.273 0-18.384-6.281-18.384-17.396 0-9.9 3.439-16.046 15.01-16.046a46.736 46.736 0 016.256.397v-12.565zm0 18.077a16.823 16.823 0 00-6.254-.469c-4.517.62-5.612 3.149-5.612 10.725 0 7.943.933 11.352 7.664 11.753 1.4.111 2.809.075 4.202-.108v-21.901zm42.865 25.964a67.359 67.359 0 01-13.886 1.593c-13.49 0-16.202-7.028-16.202-16.719 0-12.25 5.681-16.678 15.399-16.678 10.463 0 15.929 4.931 15.929 15.588v3.695h-21.821c.244 5.979 1.516 8.638 6.789 8.638a81.954 81.954 0 0012.807-1.543l.985 5.426zm-7.936-17.961c-.241-6.446-2.024-8.407-6.429-8.407-4.157 0-5.978 2.003-6.22 8.411l12.649-.004zM72.391 159.76a40.747 40.747 0 0115.532-3.262c11.692 0 15.667 5.666 15.667 16.047v16.739h-9.085v-16.738c0-7.967-1.775-10.623-6.585-10.623a26.88 26.88 0 00-6.582.962v26.388h-8.953l.006-29.513z" fill="#0A2240"/><path d="M363.234 183.44a60.045 60.045 0 01-8.678 1.118c-6.155.28-7.32-2.279-7.32-11.285 0-9.005 1.175-11.625 7.32-11.346 1.833.078 5.782.908 8.68 1.202l.858-5.263a78.29 78.29 0 00-9.236-1.295c-13.682-.611-17.004 5.151-17.004 16.702 0 11.552 3.331 17.212 17.014 16.699a68.893 68.893 0 009.439-1.191l-1.073-5.341zm-27.92 0a59.99 59.99 0 01-8.674 1.118c-6.164.28-7.323-2.279-7.323-11.285 0-9.005 1.173-11.625 7.323-11.346 1.827.078 5.77.908 8.676 1.202l.86-5.263a78.562 78.562 0 00-9.238-1.295c-13.684-.611-17.002 5.151-17.002 16.702 0 11.552 3.331 17.212 17.013 16.699a68.879 68.879 0 009.438-1.191l-1.073-5.341zm-28.955-17.331c0 15.622-4.133 23.721-21.075 23.721-16.822 0-21.458-7.039-21.458-23.879 0-15.855 6.75-22.128 21.458-22.128 13.411 0 21.075 6.635 21.075 22.286zm-21.075 17.418c10.019 0 11.749-5.005 11.749-17.418 0-11.942-4.507-16.027-11.749-16.027-8.785 0-12.123 3.244-12.123 15.863-.017 13.35 1.982 17.582 12.113 17.582h.01zm83.232-38.015h8.952v6.759h-8.952v-6.759zm0 11.65h8.952v32.158h-8.952v-32.158zm34.698-12.837h9.042v44.82c-5.116.43-8.316.79-11.922.79-15.275 0-18.384-6.281-18.384-17.396 0-9.9 3.436-16.046 15.009-16.046a46.732 46.732 0 016.255.397v-12.565zm0 18.077a16.813 16.813 0 00-6.252-.469c-4.519.62-5.614 3.149-5.614 10.725 0 7.943.933 11.423 7.664 11.753.451.03 1.005.045 1.606.045.787 0 1.824-.125 2.596-.153v-21.901zm49.064-2.642a40.761 40.761 0 0115.535-3.262c11.688 0 15.666 5.666 15.666 16.047v16.739h-9.09v-16.738c0-7.967-1.772-10.623-6.582-10.623-2.225.047-4.436.37-6.582.962v26.388h-8.952l.005-29.513zm47.914-10.062v7.613h7.153v5.438h-7.153v15.963c0 3.708.289 5.082 1.865 5.307a24.54 24.54 0 005.258-.246l1.067 5.351c-2.672.536-5.39.804-8.115.801-7.949 0-9.326-3.673-9.326-11.213v-15.963h-5.516v-5.438h5.509v-7.612l9.258-.001zm-53.404 38.636a67.463 67.463 0 01-13.89 1.591c-13.486 0-16.2-7.026-16.2-16.719 0-12.25 5.681-16.678 15.399-16.678 10.463 0 15.933 4.931 15.933 15.588v3.694h-21.822c.248 5.984 1.519 8.64 6.791 8.64a82.083 82.083 0 0012.808-1.541l.981 5.425zm-7.936-17.961c-.239-6.448-2.024-8.407-6.433-8.407-4.153 0-5.968 2.004-6.218 8.407h12.651zm100.906 17.993a67.359 67.359 0 01-13.886 1.593c-13.49 0-16.202-7.028-16.202-16.719 0-12.25 5.682-16.678 15.399-16.678 10.463 0 15.931 4.931 15.931 15.588v3.695h-21.821c.246 5.979 1.516 8.638 6.789 8.638a81.954 81.954 0 0012.807-1.543l.983 5.426zm-7.936-17.961c-.241-6.446-2.024-8.407-6.429-8.407-4.157 0-5.978 2.003-6.22 8.411l12.649-.004zm-137.46-85.577l55.156 55.115 55.156-55.115-12.822-12.813-42.338 42.291-29.498-29.478 29.502-29.476 12.573 12.563 12.828-12.817-25.403-25.385-55.154 55.115z" fill="#0082CA"/><path d="M504.672 55.113L449.52-.002l-55.158 55.115 12.826 12.817 42.338-42.293 29.496 29.476-29.496 29.476-12.577-12.563-12.831 12.819 25.406 25.381 55.148-55.113z" fill="#0082CA"/></g><defs><clipPath id="clip0"><path fill="#fff" d="M0 0h541v190H0z"/></clipPath></defs></svg>