<svg width="164" height="32" viewBox="0 0 534 104" fill="none" xmlns="http://www.w3.org/2000/svg"><path d="M121.853 64.198a27.194 27.194 0 01-7.36 1.265c-5.611 0-6.777-4.921-6.777-9.04 0-6.385 2.317-9.625 6.904-9.625 1.286-.02 2.567.167 3.793.554.092.044 4.044 1.634 4.044 1.634l.075-5.31-.54-.225a24.413 24.413 0 00-8.968-1.972c-8.22 0-13.511 5.888-13.511 14.992 0 8.663 5.121 14.476 12.752 14.476a26.186 26.186 0 0010.903-2.7l.736-.316-1.185-3.96-.866.227zM26.695 49.5a8.194 8.194 0 005.31-8.486 8.893 8.893 0 00-5.443-8.803c-2.431-1.008-4.71-1.264-11.614-1.264H.31v4.191s3.544.516 4.606.68v34.557h11.63c3.636.33 7.3-.196 10.694-1.54a10.356 10.356 0 006.18-9.75 9.003 9.003 0 00-6.726-9.597v.013zM13.127 36.046h2.266a10.75 10.75 0 016.876 1.249 5.004 5.004 0 011.527 3.935c0 3.91-1.198 5.456-5.83 5.92l-3.319.345c0-.016-1.52 2.56-1.52 2.56v-14.01zm9.433 27.727a13.437 13.437 0 01-7.963 1.501h-1.47v-12.96l.196.032h2.696a11.382 11.382 0 016.873 1.311 6.226 6.226 0 011.957 4.874 6.437 6.437 0 01-2.29 5.247M257.683 49.5a8.191 8.191 0 005.307-8.486 8.876 8.876 0 00-5.456-8.803c-2.424-1.008-4.694-1.264-11.608-1.264h-14.633v4.191s3.55.516 4.609.68v34.557h11.636a23.394 23.394 0 0010.701-1.54 10.382 10.382 0 006.171-9.75 9.013 9.013 0 00-6.727-9.597v.013zm-13.562-13.455h2.27c2.365-.36 4.782.08 6.869 1.249a5.025 5.025 0 011.521 3.935c0 3.91-1.214 5.456-5.842 5.92l-3.307.345c0-.016-1.511 2.56-1.511 2.56V36.045zm9.417 27.727a13.431 13.431 0 01-7.972 1.501h-1.445V52.314c.035 0 .193.032.193.032h2.693c2.37-.297 4.773.162 6.866 1.311a6.186 6.186 0 011.964 4.874 6.398 6.398 0 01-2.299 5.247M87.841 41.466c-3.092.205-6.12.983-8.927 2.295-.047-.655-.167-2.238-.167-2.238l-11.848 1.505v4.16h4.356v23.2h7.792s.063-20.498.063-21.671a19.805 19.805 0 016.029-1.141 3.503 3.503 0 012.573.733c.755.762.746 2.235.724 3.964v18.114h7.85V51.852c0-4.308-.181-5.705-1.54-7.446a8.168 8.168 0 00-6.901-2.94m51.318 0c-8.718 0-14.174 5.661-14.174 14.77 0 9.214 5.304 14.698 14.174 14.698 8.703 0 14.109-5.648 14.109-14.758 0-9.216-5.27-14.71-14.109-14.71zm-.056 24.386c-2.529 0-5.896-1-5.896-9.616 0-8.473 3.019-9.618 5.952-9.618 2.529 0 5.899.999 5.899 9.558 0 8.56-3.006 9.675-5.955 9.675m204.718-24.385c-8.728 0-14.156 5.661-14.156 14.77 0 9.214 5.295 14.698 14.156 14.698 8.706 0 14.118-5.648 14.118-14.758 0-9.216-5.273-14.71-14.118-14.71zm-.047 24.386c-2.529 0-5.89-1-5.89-9.616 0-8.473 3.01-9.618 5.937-9.618 2.529 0 5.905.999 5.905 9.558 0 8.56-3.019 9.675-5.952 9.675zm32.939-.895l-5.516.838c-1.236 0-1.581-.316-1.758-.632-.177-.316-.196-.471-.196-2.665V47.181h7.78v-4.823h-7.78v-7.5l-.973.081-6.904.585v26.82a9.125 9.125 0 001.53 6.371 6.826 6.826 0 005.74 2.169 23.44 23.44 0 008.472-1.868l.772-.317-1.167-3.742zm-94.349-23.491c-8.718 0-14.149 5.661-14.149 14.77 0 9.214 5.295 14.698 14.149 14.698 8.71 0 14.122-5.648 14.122-14.758 0-9.216-5.273-14.71-14.122-14.71zm-.05 24.386c-2.529 0-5.889-1-5.889-9.616 0-8.473 3.019-9.618 5.939-9.618 2.529 0 5.902.999 5.902 9.558 0 8.56-3.009 9.675-5.952 9.675m36.335-22.112a12.544 12.544 0 00-6.114-1.558c-7.824 0-13.394 6.233-13.394 14.966 0 8.373 4.407 13.623 11.469 13.623a20.866 20.866 0 007.817-2.194v2.254c0 4.87-1.773 6.274-7.88 6.274a43.711 43.711 0 01-9.373-1.128v4.722a48.723 48.723 0 0011.247 1.66c3.23.126 6.443-.524 9.37-1.897 3.417-1.818 4.685-4.394 4.685-9.334V42.535h-7.827v1.204zm-.222 20.968c-1.204.21-2.423.322-3.645.332-4.725 0-7.318-3.066-7.318-8.695 0-5.85 2.924-9.223 8.042-9.223.98-.009 1.959.08 2.921.262v17.324zM62.94 42.734h-7.659v1.172a12.265 12.265 0 00-5.971-1.542c-7.679 0-13.116 6.201-13.116 14.906 0 8.348 4.302 13.591 11.21 13.591a16.623 16.623 0 007.656-2.844v2.585l.155-.022 10.9-1.084v-4.678h-3.161l-.013-22.084zm-7.646 22.198a22.08 22.08 0 01-3.708.316c-4.846 0-7.495-3.085-7.495-8.78 0-5.918 3-9.344 8.219-9.344 1-.002 1.996.093 2.977.284l.007 17.524zm350.43-22.198h-7.675v1.172a12.224 12.224 0 00-5.975-1.542c-7.675 0-13.125 6.201-13.125 14.906 0 8.348 4.318 13.591 11.229 13.591a16.728 16.728 0 007.656-2.844v2.585l11.048-1.106v-4.678h-3.161l.003-22.084zm-7.656 22.198a22.12 22.12 0 01-3.708.316c-4.846 0-7.505-3.085-7.505-8.78 0-5.918 2.991-9.344 8.219-9.344a15.625 15.625 0 012.988.284l.006 17.524zm4.059-29.272l-1.852-5.968-.822.338-12.244 4.963 1.075 3.553 13.843-2.886zm-211.265-6.546l-.389.044-.933.114-10.343 1.321v3.477h3.793v9.1a18.067 18.067 0 00-11.304-.598c-5.428 1.827-8.482 6.704-8.637 13.785a13.094 13.094 0 008.419 13.404c4.015.87 8.208.33 11.873-1.526.028.556.095 2.307.095 2.307l10.432-1.378v-3.496h-3.338c0-.702.316-36.56.316-36.56l.016.006zm-7.856 35.568c-3.537.948-7.438 1.672-9.97-1.384a11.106 11.106 0 01-1.764-7.118v-.926a9.502 9.502 0 012.37-6.59 8.137 8.137 0 019.547-.772s-.193 16.23-.193 16.79m26.52-23.222a14.184 14.184 0 00-5.014.667c-5.763 1.877-9.025 6.922-9.167 14.223a13.459 13.459 0 008.968 13.803 24.276 24.276 0 0016.798-2.645l.244-.13-1.306-3.989-2.567.806c-3.723 1.04-8.535 2.927-11.595-.632a11.033 11.033 0 01-1.896-7.146l15.217.316h2.286l.019-.332c.063-.673.098-1.33.098-1.976 0-13.234-11.57-12.94-12.082-12.959l-.003-.006zM204.17 52.5c.082-.496.275-6.207 5.374-6.207 5.178 0 5.254 5.585 5.333 6.207H204.17z" fill="#17377A"/><path d="M481.719.939c-27.919.48-51.005 19.973-52.017 46.763a48.535 48.535 0 0028.264 45.938 48.543 48.543 0 0018.427 4.388 48.372 48.372 0 0035.329-13.37c8.829-8.414 8.46-23.213 1.448-16.509a41.488 41.488 0 01-30.259 11.38 39.692 39.692 0 01-39.082-40.437c.781-19.976 20.567-35.786 38.317-36.737l.462-1.413h-.889" fill="url(#paint0_linear)"/><path d="M485.623 2.37c22.537 1.353 41.096 20.546-24.508 39.728a93.578 93.578 0 0129.064 11.123C546.312 24.667 514.387.844 482.592.941l-.459 1.417a27.679 27.679 0 013.478 0" fill="#FBD413"/><path d="M460.688 42.095c14.839 1.85 46.103 18.61 48.96 34.57-.022-.25-.926-6.597-.926-6.597-2.285-15.07.901-29.69 23.968-30.887a67.477 67.477 0 00-29.689-7.19c-17.82 0-31.394 7.696-42.313 10.114" fill="url(#paint1_linear)"/><path d="M509.329 75.28a18.055 18.055 0 01-1.603 12.906c-4.074 6.953-10.713 12.219-23.484 15.649 32.744 1.501 70.238-29.955 36.509-60.229-14.242 5.885-12.787 22.148-11.422 31.674" fill="url(#paint2_linear)"/><defs><linearGradient id="paint0_linear" x1="429.668" y1="49.502" x2="518.393" y2="49.502" gradientUnits="userSpaceOnUse"><stop stop-color="#F63134"/><stop offset="1" stop-color="#980F08"/></linearGradient><linearGradient id="paint1_linear" x1="496.689" y1="76.665" x2="496.689" y2="31.99" gradientUnits="userSpaceOnUse"><stop offset=".753" stop-color="#F7D314"/><stop offset=".834" stop-color="#F4D015"/><stop offset=".891" stop-color="#EEC61A"/><stop offset=".94" stop-color="#E2B722"/><stop offset=".986" stop-color="#D2A12D"/><stop offset="1" stop-color="#CC9932"/></linearGradient><linearGradient id="paint2_linear" x1="521.113" y1="92.252" x2="491.701" y2="72.264" gradientUnits="userSpaceOnUse"><stop stop-color="#F7D314"/><stop offset="1" stop-color="#CC9932"/></linearGradient></defs></svg>