<svg width="53" height="32" viewBox="0 0 267 160" fill="none" xmlns="http://www.w3.org/2000/svg"><g clip-path="url(#clip0)"><path d="M48.363 82.267c.873.293 1.89.73 3.048 1.31 2.032 1.166 3.77 2.761 5.23 4.794 1.747 2.905 2.612 6.39 2.612 10.453 0 13.946-8.429 20.916-25.272 20.916H1.31c-.873 0-1.31-.437-1.31-1.31V51.327c0-.873.437-1.31 1.31-1.31h34.424c6.104 0 11.033 1.679 14.812 5.013 3.77 3.341 5.667 7.774 5.667 13.29 0 3.2-.73 6.03-2.175 8.498-1.46 2.476-3.35 4.29-5.675 5.449zm-14.811 27.448c4.937 0 8.564-.798 10.89-2.394 2.318-1.595 3.484-4.357 3.484-8.278 0-3.921-1.166-6.676-3.484-8.28-2.326-1.595-5.96-2.392-10.89-2.392h-20.48c-1.166 0-1.745.436-1.745 1.31v18.739c0 .873.58 1.31 1.746 1.31h20.479v-.015zm-20.48-49.673c-.872 0-1.309.437-1.309 1.31v15.684c0 .873.437 1.31 1.31 1.31h20.042c7.549 0 11.327-3.048 11.327-9.152 0-6.104-3.778-9.152-11.327-9.152H13.073zm105.886 22.225c.873.293 1.746.73 2.612 1.31 2.318 1.166 4.064 2.761 5.231 4.794 2.032 2.905 3.048 6.39 3.048 10.453 0 13.946-8.43 20.916-25.273 20.916H71.897c-.873 0-1.31-.437-1.31-1.31V51.327c0-.873.437-1.31 1.31-1.31h34.425c5.81 0 10.672 1.679 14.601 5.013 3.921 3.341 5.885 7.774 5.885 13.29 0 3.2-.73 6.03-2.175 8.498-1.468 2.476-3.357 4.29-5.675 5.449zM83.224 60.042c-.873 0-1.31.437-1.31 1.31v15.684c0 .873.437 1.31 1.31 1.31h20.479c7.549 0 11.327-3.048 11.327-9.152 0-6.104-3.778-9.152-11.327-9.152H83.224zm20.915 49.673c4.938 0 8.565-.798 10.891-2.394 2.318-1.595 3.484-4.357 3.484-8.278 0-3.921-1.166-6.676-3.484-8.28-2.326-1.595-5.961-2.392-10.891-2.392H83.224c-.873 0-1.31.436-1.31 1.31v18.739c0 .873.437 1.31 1.31 1.31h20.915v-.015zm88.019-58.825c.286-.58.579-.873.873-.873h11.327c.286 0 .579.15.873.437.286.293.286.587 0 .873l-36.163 67.976c-.294.294-.655.437-1.092.437-.436 0-.805-.143-1.091-.437l-36.163-67.976c-.294-.286-.369-.58-.219-.873.143-.286.505-.437 1.092-.437h10.89c.58 0 1.016.294 1.31.873l23.09 43.577c0 .293.286.436.873.436.579 0 1.016-.143 1.31-.436l23.09-43.577zm13.073 57.959c-.294.587-.73.873-1.31.873h-11.327c-.293 0-.512-.143-.655-.436a1.86 1.86 0 01-.218-.873l36.171-67.976c.286-.286.722-.437 1.309-.437.58 0 1.017.15 1.31.437l36.156 67.976c0 .293-.076.587-.219.873-.15.293-.368.436-.654.436h-11.327c-.587 0-1.024-.286-1.31-.873l-22.661-43.576c-.294-.58-.73-.873-1.31-.873-.587 0-1.023.293-1.309.873l-22.646 43.576z" fill="#004580"/></g><defs><clipPath id="clip0"><path fill="#fff" d="M0 0h266.667v160H0z"/></clipPath></defs></svg>