<svg version="1.1" id="Layer_1" xmlns="http://www.w3.org/2000/svg" xmlns:xlink="http://www.w3.org/1999/xlink" x="0px" y="0px" width="214" viewBox="0 0 1816 271" enable-background="new 0 0 1816 271" xml:space="preserve" height="32">
<path fill="#FFFEFE" opacity="1.000000" stroke="none" d="
M1717.000000,272.000000 
	C1144.734985,272.000000 572.970093,272.000000 1.102559,272.000000 
	C1.102559,181.745941 1.102559,91.491730 1.102559,1.118760 
	C606.333313,1.118760 1211.666626,1.118760 1816.993530,1.118760 
	C1816.993530,91.363525 1816.993530,181.681763 1816.990234,272.000000 
	C1783.824707,272.000000 1750.662354,272.000000 1717.000000,272.000000 
M1039.026489,127.221672 
	C1038.401489,126.760704 1037.776489,126.299744 1036.835083,125.241196 
	C1025.425659,116.526558 1012.316711,114.820213 998.371460,114.742744 
	C989.708008,114.694626 983.001282,117.119049 976.915588,123.844681 
	C974.808472,126.622757 972.368164,129.211212 970.658752,132.215576 
	C966.110657,140.209122 967.406555,150.292114 974.733154,155.686371 
	C980.637085,160.033188 987.443665,163.595474 994.374756,165.978867 
	C1001.020874,168.264221 1008.342834,168.584015 1015.853760,169.849503 
	C1014.650146,170.340500 1013.721619,170.906662 1012.721252,171.098984 
	C999.605408,173.620346 986.400879,174.774231 973.103577,172.894714 
	C957.051758,170.625854 941.238770,167.394333 927.182678,158.710648 
	C908.652100,147.262741 906.498108,129.170334 921.745667,113.624779 
	C930.503662,104.695648 941.720398,99.859093 953.154480,95.723297 
	C988.920349,82.786507 1025.814697,80.586678 1063.325195,84.782448 
	C1064.663574,84.932159 1066.099854,84.206985 1068.610107,83.633995 
	C1066.328857,82.783470 1065.261841,82.346344 1064.169800,81.984146 
	C1032.959473,71.632347 1001.194763,70.305763 969.065369,76.518990 
	C944.808472,81.209801 922.203613,89.804344 904.358398,107.646530 
	C888.313721,123.688423 883.500916,144.016479 896.027161,164.866638 
	C902.292786,175.295959 911.348145,182.755066 921.600769,188.878265 
	C923.620605,190.084610 926.201599,191.010498 928.508118,190.977234 
	C955.322632,190.590591 981.497620,186.339310 1006.724304,177.061050 
	C1011.706360,175.228668 1017.037415,173.633667 1020.187500,168.602997 
	C1020.675232,167.824097 1022.189758,167.353912 1023.246460,167.323013 
	C1028.027466,167.183273 1031.218872,164.449005 1034.735840,160.881348 
	C1037.170288,157.956619 1039.950684,155.251373 1041.971802,152.064529 
	C1047.254639,143.735016 1046.495728,136.102890 1039.999023,128.390198 
	C1039.733398,128.191696 1039.467773,127.993195 1039.026489,127.221672 
M1219.258423,158.156799 
	C1213.673096,162.398239 1207.471191,165.025574 1200.369141,164.913513 
	C1188.449585,164.725464 1181.333130,157.315689 1182.093994,146.062347 
	C1182.740723,136.495850 1189.676392,127.351387 1198.785156,124.410210 
	C1208.489136,121.276848 1217.348145,122.502014 1224.823730,130.697678 
	C1226.246582,122.457741 1227.566040,114.816383 1228.869019,107.270592 
	C1202.483398,95.964821 1169.089478,111.957588 1161.042725,139.327301 
	C1155.136719,159.415619 1164.465332,174.731552 1181.351807,181.342361 
	C1192.901611,185.863907 1204.852905,184.979172 1217.148193,180.700836 
	C1218.024048,173.199753 1218.923096,165.500488 1220.140991,157.948990 
	C1220.243774,157.888992 1220.346680,157.828995 1220.449463,157.769028 
	C1220.385132,157.735764 1220.303589,157.659653 1220.259766,157.677277 
	C1220.129761,157.729431 1220.014648,157.818558 1219.258423,158.156799 
M1089.995728,170.521805 
	C1083.222778,174.700378 1076.827271,179.736984 1069.612671,182.912018 
	C1034.652832,198.297165 997.705444,201.442047 960.053040,199.556824 
	C954.977478,199.302689 949.903015,199.028030 944.828003,198.762848 
	C946.518616,200.483856 948.417480,201.316055 950.389771,201.900803 
	C982.493774,211.419250 1014.925598,212.642456 1047.625122,205.452789 
	C1069.888184,200.557831 1090.712402,192.395386 1107.593384,176.492432 
	C1124.733154,160.345718 1131.130371,137.552383 1115.476807,115.424591 
	C1109.213257,106.570282 1100.893677,99.924202 1091.705444,94.382156 
	C1089.563110,93.089989 1086.802734,92.151962 1084.335815,92.171791 
	C1057.850342,92.384583 1031.982300,96.528587 1006.980408,105.381966 
	C1001.692261,107.254570 996.763489,110.142143 991.710205,112.542572 
	C1004.636292,111.509399 1017.232178,109.422508 1029.765015,109.750008 
	C1049.349731,110.261772 1068.757446,113.400032 1085.522827,124.574562 
	C1090.844360,128.121613 1095.895142,133.237411 1098.928345,138.802521 
	C1104.492188,149.010788 1100.982056,159.664871 1089.995728,170.521805 
M1228.895630,159.502487 
	C1231.330811,168.974731 1237.126343,175.672668 1245.814575,179.974121 
	C1271.657715,192.768890 1307.714844,177.023438 1315.821289,149.406555 
	C1320.965820,131.880157 1315.933960,117.679802 1300.860107,109.093864 
	C1290.252319,103.051735 1278.542847,102.421883 1266.887329,105.058975 
	C1242.910400,110.483727 1223.213379,130.734146 1228.895630,159.502487 
M1587.868774,116.186386 
	C1584.028076,138.859177 1580.187256,161.531967 1576.320435,184.358887 
	C1584.462646,184.358887 1591.570435,184.358887 1598.984497,184.358887 
	C1600.705322,174.429703 1602.396973,164.669144 1604.311279,153.623703 
	C1609.487671,163.497040 1614.052856,172.303482 1618.742188,181.043411 
	C1619.450439,182.363388 1620.706543,184.341446 1621.760010,184.374176 
	C1630.448242,184.644196 1639.148438,184.526825 1648.499878,184.526825 
	C1641.036499,173.082794 1634.057983,162.382172 1627.547241,152.398666 
	C1632.408569,149.418503 1637.617188,147.273361 1641.438965,143.661148 
	C1649.016602,136.499069 1651.412720,127.027534 1648.722290,117.087883 
	C1646.316162,108.198952 1638.516113,104.701118 1630.255005,104.264038 
	C1616.994995,103.562469 1603.670532,104.075943 1589.995972,104.075943 
	C1589.321533,107.856941 1588.655151,111.592430 1587.868774,116.186386 
M1443.844360,158.293549 
	C1439.108154,166.759659 1434.371826,175.225754 1429.133301,184.589615 
	C1433.438354,184.589615 1436.619995,184.175095 1439.655273,184.666183 
	C1449.325073,186.230728 1456.283203,183.522003 1459.855225,173.704620 
	C1460.394897,172.221329 1463.297729,170.817841 1465.167480,170.735077 
	C1472.807861,170.396942 1480.474487,170.705734 1488.125122,170.520615 
	C1491.146484,170.447510 1492.702881,171.290146 1493.185425,174.456360 
	C1493.701050,177.839966 1494.742065,181.143494 1495.543701,184.440048 
	C1503.662720,184.440048 1511.289673,184.440048 1519.496094,184.440048 
	C1513.162842,157.513885 1506.896606,130.871933 1500.532837,103.815720 
	C1493.497437,103.815720 1486.698364,104.044868 1479.926025,103.719162 
	C1476.533081,103.555984 1474.867188,104.938828 1473.306030,107.648117 
	C1463.676880,124.358566 1453.917114,140.993805 1443.844360,158.293549 
M1750.683594,104.329964 
	C1743.219116,104.159950 1735.752930,103.858376 1728.291870,103.954224 
	C1727.099121,103.969536 1725.533936,105.533180 1724.807373,106.771881 
	C1711.248657,129.893555 1697.774902,153.065140 1684.334717,176.255966 
	C1682.880005,178.765808 1681.740845,181.458466 1680.191162,184.602249 
	C1685.832642,184.602249 1690.648071,184.603882 1695.463501,184.601471 
	C1697.463013,184.600464 1699.525024,184.888275 1701.441284,184.485977 
	C1702.840698,184.192139 1704.837524,183.255478 1705.219482,182.142563 
	C1708.916138,171.371704 1716.756470,168.808121 1727.023438,170.550461 
	C1728.319092,170.770340 1729.684326,170.579132 1731.017334,170.579758 
	C1742.851196,170.585327 1742.849609,170.585831 1745.780884,181.817017 
	C1745.989258,182.615540 1746.242065,183.402466 1746.473633,184.193024 
	C1754.290649,184.193024 1761.997314,184.193024 1770.227295,184.193024 
	C1763.749634,157.500397 1757.394531,131.313141 1750.683594,104.329964 
M91.920418,127.547485 
	C85.416359,144.853973 90.872917,161.950302 105.806900,171.056107 
	C119.734322,179.548187 138.238968,176.992294 149.065475,164.752167 
	C158.502762,154.082657 160.867981,141.702652 155.561707,128.516022 
	C150.249329,115.314240 139.975372,107.862267 125.728745,107.049377 
	C110.382332,106.173729 99.282921,113.289413 91.920418,127.547485 
M1439.022705,106.244057 
	C1436.302002,105.514557 1433.590454,104.197212 1430.859009,104.154579 
	C1417.060547,103.939194 1403.256714,104.055550 1388.905029,104.055550 
	C1384.440552,130.762756 1379.982910,157.428925 1375.490234,184.304672 
	C1383.239014,184.304672 1390.487671,184.304672 1398.016113,184.304672 
	C1398.773071,179.839859 1399.460693,175.584808 1400.222778,171.343094 
	C1400.985107,167.099777 1400.465210,161.375946 1403.014038,159.061279 
	C1405.479858,156.822067 1411.135376,158.036957 1415.394775,157.841019 
	C1437.121216,156.841431 1448.841553,146.611008 1450.439697,127.275108 
	C1451.197998,118.099068 1448.214233,110.930061 1439.022705,106.244057 
M550.035767,113.505424 
	C550.035767,109.069046 550.035767,104.632660 550.035767,100.196228 
	C543.866211,100.196228 538.331116,100.196228 532.745483,100.196228 
	C532.745483,127.959267 532.745483,155.337036 532.745483,182.721100 
	C538.651184,182.721100 544.224548,182.721100 549.762451,182.721100 
	C549.986450,181.015564 550.168945,179.626572 550.367188,178.117172 
	C565.816406,186.773712 577.201599,185.802414 587.035461,175.223679 
	C596.239929,165.322037 597.585571,149.669128 590.304138,138.162689 
	C585.984924,131.337280 579.844666,127.065262 572.089233,125.216080 
	C563.999084,123.287109 556.829773,125.777481 550.036133,131.779221 
	C550.036133,125.118004 550.036133,119.809433 550.035767,113.505424 
M254.999146,180.603210 
	C264.751984,175.766830 269.852509,167.856964 269.683197,157.020996 
	C269.511200,146.014999 263.095215,139.283112 253.321213,135.360840 
	C249.154709,133.688858 244.836411,132.391388 240.687927,130.679398 
	C236.851364,129.096115 234.089188,126.432777 235.060196,121.847618 
	C236.024811,117.292664 239.706406,115.657333 243.738281,116.042664 
	C248.592194,116.506569 253.355545,117.917885 258.744965,119.041389 
	C260.867096,114.858643 263.319916,110.024117 265.937378,104.865112 
	C254.667145,98.455086 243.085526,96.185509 231.192963,100.582367 
	C220.824356,104.415794 215.700378,112.917603 215.303772,123.876816 
	C214.935730,134.046722 220.465714,140.827911 229.204315,145.088104 
	C234.129181,147.489029 239.365921,149.247574 244.449661,151.326157 
	C248.002975,152.779007 250.531570,155.183075 249.843826,159.288116 
	C249.118805,163.615677 246.131195,166.311020 241.787964,165.857224 
	C236.768066,165.332764 231.812057,163.975830 226.906998,162.682022 
	C224.939041,162.162933 223.180573,160.849670 221.133347,159.798569 
	C218.005188,165.264450 215.155869,170.243118 212.247147,175.325546 
	C225.748444,184.885254 239.473145,187.169495 254.999146,180.603210 
M78.059303,101.667343 
	C73.935570,113.318413 75.006760,124.561363 80.602554,136.326752 
	C81.183517,134.372238 81.565186,133.273926 81.836166,132.148941 
	C86.547707,112.589546 101.088959,99.938370 121.045685,98.935173 
	C133.514923,98.308357 146.034088,98.698593 158.529755,98.543915 
	C160.109604,98.524353 162.277740,98.520874 163.165192,97.569519 
	C170.478760,89.729385 177.554138,81.667030 185.096664,73.230217 
	C160.542282,73.230217 136.857910,72.170914 113.322594,73.587563 
	C96.498810,74.600243 84.562309,84.858971 78.059303,101.667343 
M474.051849,129.425659 
	C472.778931,130.492905 471.463562,131.513794 470.239899,132.634842 
	C461.712433,140.447205 458.707886,153.613678 463.049072,165.254013 
	C467.365540,176.828140 475.940857,183.680283 488.163483,183.970718 
	C494.018341,184.109833 499.949036,181.058502 505.835327,179.454880 
	C505.901794,179.860519 506.149872,181.374588 506.376740,182.759277 
	C512.230591,182.759277 517.660034,182.759277 523.251221,182.759277 
	C523.251221,163.761902 523.251221,145.038177 523.251221,126.268326 
	C517.358704,126.268326 511.781128,126.268326 506.247650,126.268326 
	C506.029785,127.954292 505.850647,129.340652 505.655029,130.854294 
	C491.261139,123.019417 486.232544,122.759155 474.051849,129.425659 
M165.125580,151.680756 
	C161.083389,169.437653 145.472229,183.103317 127.277145,183.988113 
	C114.491150,184.609848 101.660072,184.275345 88.851151,184.489075 
	C87.133537,184.517731 84.824341,184.688644 83.813278,185.760101 
	C76.566704,193.439590 69.585228,201.369217 62.210842,209.562378 
	C63.376060,209.796524 63.823689,209.964890 64.271423,209.965179 
	C85.907265,209.978745 107.549255,210.299393 129.177185,209.885895 
	C149.808350,209.491455 165.659851,196.545639 170.457336,176.479889 
	C172.848038,166.480667 171.939804,156.603149 166.333084,146.812836 
	C165.845459,148.684601 165.552872,149.807739 165.125580,151.680756 
M647.302979,126.163841 
	C646.805847,127.657883 646.308716,129.151917 645.812134,130.646149 
	C629.990845,121.961166 617.879089,123.474800 608.261169,135.339020 
	C599.420349,146.244614 599.390686,163.215958 608.194153,173.642151 
	C618.373352,185.697662 630.124756,187.170502 645.918152,178.249420 
	C646.288452,179.822906 646.646484,181.344086 646.959595,182.674438 
	C652.674622,182.674438 658.083008,182.674438 663.483154,182.674438 
	C663.483154,163.625061 663.483154,144.929962 663.483154,126.002243 
	C658.108765,126.002243 653.127197,126.002243 647.302979,126.163841 
M776.809265,125.979614 
	C773.444275,125.379257 771.359375,126.837334 769.482422,129.659256 
	C765.470093,135.691788 761.070862,141.466995 756.830078,147.347595 
	C756.467834,147.253204 756.105652,147.158798 755.743408,147.064407 
	C755.743408,131.408371 755.743408,115.752327 755.743408,100.142288 
	C749.473999,100.142288 743.897461,100.142288 738.262573,100.142288 
	C738.262573,127.872551 738.262573,155.264282 738.262573,182.577759 
	C744.277161,182.577759 749.978577,182.577759 756.041382,182.577759 
	C756.041382,175.235641 756.041382,168.335159 756.041382,159.952042 
	C761.805237,167.468658 766.658508,173.909912 771.666626,180.228439 
	C772.599854,181.405853 774.121338,182.817291 775.428894,182.877899 
	C781.492432,183.158966 787.576233,183.002197 794.693542,183.002197 
	C786.978210,172.955200 779.928833,163.775360 772.822937,154.522003 
	C779.441406,145.165451 785.940186,135.978119 793.013062,125.979141 
	C787.261475,125.979141 782.500977,125.979141 776.809265,125.979614 
M1544.500000,103.815186 
	C1537.560181,103.815186 1530.620483,103.815186 1523.402222,103.815186 
	C1522.415283,109.977325 1521.515991,115.592049 1520.523193,121.790474 
	C1527.083984,121.790474 1532.840210,121.790474 1538.903076,121.790474 
	C1535.489502,142.877243 1532.159058,163.450348 1528.739502,184.573715 
	C1533.004639,184.573715 1536.639893,184.573578 1540.275146,184.573746 
	C1551.449463,184.574234 1551.340088,184.557037 1553.057861,173.656738 
	C1555.771973,156.434113 1558.649780,139.237289 1561.542358,121.514938 
	C1567.835449,121.514938 1573.899536,121.514938 1580.245972,121.514938 
	C1581.075073,115.465202 1581.833374,109.932686 1582.671875,103.815109 
	C1570.045532,103.815109 1557.772827,103.815109 1544.500000,103.815186 
M1370.905151,176.477539 
	C1371.366821,173.251694 1371.828369,170.025848 1372.374756,166.207764 
	C1363.277100,166.207764 1354.712158,166.207764 1345.610229,166.207764 
	C1349.106445,145.201263 1352.502075,124.799187 1355.928955,104.208847 
	C1348.197998,104.208847 1340.824951,104.208847 1333.361938,104.208847 
	C1328.800171,131.069305 1324.302612,157.551666 1319.751953,184.346573 
	C1336.791138,184.346573 1353.049072,184.346573 1369.444214,184.346573 
	C1369.903076,181.864349 1370.322754,179.593994 1370.905151,176.477539 
M672.453003,169.487396 
	C672.453003,173.909912 672.453003,178.332428 672.453003,182.656708 
	C678.774048,182.656708 684.353455,182.656708 690.197449,182.656708 
	C690.197449,176.148941 690.114563,169.998260 690.223999,163.851028 
	C690.309570,159.042664 690.200806,154.168076 690.968872,149.451645 
	C691.798096,144.359665 696.370239,141.459808 701.649292,141.757156 
	C706.791077,142.046799 710.539368,145.167770 711.023438,150.365829 
	C711.500366,155.486725 711.355469,160.669220 711.403259,165.825439 
	C711.455261,171.441910 711.415039,177.059219 711.415039,182.662231 
	C717.747620,182.662231 723.468018,182.662231 729.540894,182.662231 
	C729.540894,172.174179 729.655518,162.039322 729.481812,151.909393 
	C729.416626,148.108688 729.155212,144.189133 728.154602,140.551727 
	C725.967590,132.601624 720.789429,127.134796 712.623840,125.256989 
	C704.741638,123.444374 697.751282,125.093147 692.621399,131.964310 
	C692.135498,132.615128 691.287109,132.995300 690.373840,133.674545 
	C690.197571,130.870819 690.055176,128.605194 689.909851,126.293999 
	C684.012573,126.293999 678.452698,126.293999 672.999451,126.293999 
	C672.777344,126.918678 672.573303,127.226143 672.572144,127.534378 
	C672.521362,141.186920 672.488342,154.839554 672.453003,169.487396 
M375.756165,179.340881 
	C376.163330,179.051620 376.578186,178.772491 376.976624,178.471649 
	C389.327850,169.145889 392.567566,153.567841 385.038330,139.717758 
	C378.190491,127.121094 362.664612,121.504547 348.923523,126.653099 
	C334.889191,131.911514 326.797577,146.572952 330.167542,161.162125 
	C334.757202,181.031784 357.544495,190.655563 375.756165,179.340881 
M1678.670166,160.212738 
	C1681.623291,141.571121 1684.576416,122.929520 1687.557617,104.110596 
	C1679.831787,104.110596 1672.578369,104.110596 1665.130249,104.110596 
	C1660.820557,130.922897 1656.552856,157.474304 1652.235107,184.337036 
	C1659.981934,184.337036 1667.244385,184.337036 1674.768066,184.337036 
	C1676.020264,176.487457 1677.250122,168.778168 1678.670166,160.212738 
M316.806641,182.483444 
	C320.750549,180.165192 324.694427,177.846954 328.864227,175.395935 
	C324.345642,170.800110 320.545441,166.934952 316.765076,163.089966 
	C309.164795,168.983582 303.077332,169.188034 297.418915,163.867599 
	C292.488983,159.232132 291.708679,152.075272 296.201904,146.782898 
	C298.116058,144.528290 301.249359,142.013443 303.881866,141.953522 
	C308.348572,141.851791 312.857483,143.602142 318.038147,144.723282 
	C320.895050,141.833679 324.615234,138.070938 328.342896,134.300629 
	C314.408112,118.569031 288.711243,123.478989 279.943237,139.050095 
	C273.793335,149.971680 274.609161,164.055450 281.804596,172.897995 
	C289.901611,182.848511 303.266846,186.704529 316.806641,182.483444 
M419.170288,122.225037 
	C419.170288,117.644524 419.170288,113.064011 419.170288,108.556015 
	C412.700562,108.556015 406.997986,108.556015 400.865051,108.556015 
	C400.865051,114.546112 400.865051,120.129219 400.865051,125.788704 
	C398.021912,125.949837 395.619415,126.085991 393.297729,126.217567 
	C393.297729,131.776718 393.297729,136.861435 393.297729,141.979996 
	C396.035889,142.150574 398.456055,142.301346 401.276611,142.477051 
	C401.276611,156.156784 401.276611,169.398972 401.276611,182.683594 
	C407.439697,182.683594 413.161743,182.683594 419.273834,182.683594 
	C419.273834,169.108994 419.273834,155.864365 419.273834,142.444778 
	C422.045593,142.239166 424.437622,142.061722 426.839691,141.883530 
	C426.839691,136.441681 426.839691,131.384338 426.839691,126.792580 
	C424.439636,124.396469 419.665375,128.722977 419.170288,122.225037 
M435.609314,178.424683 
	C435.717529,179.847183 435.825714,181.269684 435.932495,182.673401 
	C441.913025,182.673401 447.489929,182.673401 453.072571,182.673401 
	C453.072571,163.713211 453.072571,145.110779 453.072571,126.270203 
	C447.232605,126.270203 441.665436,126.270203 435.607086,126.270203 
	C435.607086,143.514069 435.607086,160.474548 435.609314,178.424683 
M439.459625,99.769890 
	C435.408203,102.454750 433.210571,106.393227 435.099182,110.840225 
	C436.301483,113.671242 439.184326,116.549347 442.015594,117.747566 
	C446.153076,119.498581 450.291046,117.805977 452.789703,113.804939 
	C455.094910,110.113678 455.182220,106.142899 452.505707,102.579338 
	C449.302551,98.314613 445.040802,97.335052 439.459625,99.769890 
M799.797668,166.331726 
	C793.367493,173.368683 799.725952,182.604935 806.010742,183.004684 
	C810.872314,183.313904 814.400818,181.269089 816.437012,176.888214 
	C818.284729,172.912888 816.962830,168.044098 813.472107,165.190048 
	C809.600403,162.024567 805.286377,162.217407 799.797668,166.331726 
z"></path>
<path fill="#D52038" opacity="1.000000" stroke="none" d="
M1034.094849,161.089020 
	C1031.218872,164.449005 1028.027466,167.183273 1023.246460,167.323013 
	C1022.189758,167.353912 1020.675232,167.824097 1020.187500,168.602997 
	C1017.037415,173.633667 1011.706360,175.228668 1006.724304,177.061050 
	C981.497620,186.339310 955.322632,190.590591 928.508118,190.977234 
	C926.201599,191.010498 923.620605,190.084610 921.600769,188.878265 
	C911.348145,182.755066 902.292786,175.295959 896.027161,164.866638 
	C883.500916,144.016479 888.313721,123.688423 904.358398,107.646530 
	C922.203613,89.804344 944.808472,81.209801 969.065369,76.518990 
	C1001.194763,70.305763 1032.959473,71.632347 1064.169800,81.984146 
	C1065.261841,82.346344 1066.328857,82.783470 1068.610107,83.633995 
	C1066.099854,84.206985 1064.663574,84.932159 1063.325195,84.782448 
	C1025.814697,80.586678 988.920349,82.786507 953.154480,95.723297 
	C941.720398,99.859093 930.503662,104.695648 921.745667,113.624779 
	C906.498108,129.170334 908.652100,147.262741 927.182678,158.710648 
	C941.238770,167.394333 957.051758,170.625854 973.103577,172.894714 
	C986.400879,174.774231 999.605408,173.620346 1012.721252,171.098984 
	C1013.721619,170.906662 1014.650146,170.340500 1015.853760,169.849503 
	C1008.342834,168.584015 1001.020874,168.264221 994.374756,165.978867 
	C987.443665,163.595474 980.637085,160.033188 974.733154,155.686371 
	C967.406555,150.292114 966.110657,140.209122 970.658752,132.215576 
	C972.368164,129.211212 974.808472,126.622757 977.324036,123.795242 
	C977.732483,123.745804 978.031616,124.030235 978.013672,124.410904 
	C976.081970,127.780334 974.074036,130.714355 972.292175,133.779816 
	C971.329773,135.435501 970.417114,137.252411 970.067627,139.106964 
	C969.057861,144.465057 971.881042,148.782120 975.084717,152.405121 
	C980.578979,158.618423 986.967468,163.492691 995.805786,164.542587 
	C1007.642212,165.948593 1019.545654,169.832245 1030.504150,161.461700 
	C1031.308228,160.847580 1032.737183,161.051743 1033.930176,160.929077 
	C1033.984741,160.982697 1034.094849,161.089020 1034.094849,161.089020 
z"></path>
<path fill="#D52038" opacity="1.000000" stroke="none" d="
M1090.255859,170.275726 
	C1100.982056,159.664871 1104.492188,149.010788 1098.928345,138.802521 
	C1095.895142,133.237411 1090.844360,128.121613 1085.522827,124.574562 
	C1068.757446,113.400032 1049.349731,110.261772 1029.765015,109.750008 
	C1017.232178,109.422508 1004.636292,111.509399 991.710205,112.542572 
	C996.763489,110.142143 1001.692261,107.254570 1006.980408,105.381966 
	C1031.982300,96.528587 1057.850342,92.384583 1084.335815,92.171791 
	C1086.802734,92.151962 1089.563110,93.089989 1091.705444,94.382156 
	C1100.893677,99.924202 1109.213257,106.570282 1115.476807,115.424591 
	C1131.130371,137.552383 1124.733154,160.345718 1107.593384,176.492432 
	C1090.712402,192.395386 1069.888184,200.557831 1047.625122,205.452789 
	C1014.925598,212.642456 982.493774,211.419250 950.389771,201.900803 
	C948.417480,201.316055 946.518616,200.483856 944.828003,198.762848 
	C949.903015,199.028030 954.977478,199.302689 960.053040,199.556824 
	C997.705444,201.442047 1034.652832,198.297165 1069.612671,182.912018 
	C1076.827271,179.736984 1083.222778,174.700378 1090.255859,170.275726 
z"></path>
<path fill="#D61E36" opacity="1.000000" stroke="none" d="
M1228.783936,159.109726 
	C1223.213379,130.734146 1242.910400,110.483727 1266.887329,105.058975 
	C1278.542847,102.421883 1290.252319,103.051735 1300.860107,109.093864 
	C1315.933960,117.679802 1320.965820,131.880157 1315.821289,149.406555 
	C1307.714844,177.023438 1271.657715,192.768890 1245.814575,179.974121 
	C1237.126343,175.672668 1231.330811,168.974731 1228.783936,159.109726 
M1291.924194,152.273697 
	C1298.564453,139.785202 1296.424438,130.353210 1285.699829,124.840874 
	C1272.247559,117.926590 1252.740356,127.730545 1250.282227,142.641159 
	C1248.195679,155.297913 1256.481812,165.065231 1269.229004,164.966995 
	C1278.797974,164.893234 1285.928345,160.300140 1291.924194,152.273697 
z"></path>
<path fill="#D71F37" opacity="1.000000" stroke="none" d="
M1587.928711,115.757156 
	C1588.655151,111.592430 1589.321533,107.856941 1589.995972,104.075943 
	C1603.670532,104.075943 1616.994995,103.562469 1630.255005,104.264038 
	C1638.516113,104.701118 1646.316162,108.198952 1648.722290,117.087883 
	C1651.412720,127.027534 1649.016602,136.499069 1641.438965,143.661148 
	C1637.617188,147.273361 1632.408569,149.418503 1627.547241,152.398666 
	C1634.057983,162.382172 1641.036499,173.082794 1648.499878,184.526825 
	C1639.148438,184.526825 1630.448242,184.644196 1621.760010,184.374176 
	C1620.706543,184.341446 1619.450439,182.363388 1618.742188,181.043411 
	C1614.052856,172.303482 1609.487671,163.497040 1604.311279,153.623703 
	C1602.396973,164.669144 1600.705322,174.429703 1598.984497,184.358887 
	C1591.570435,184.358887 1584.462646,184.358887 1576.320435,184.358887 
	C1580.187256,161.531967 1584.028076,138.859177 1587.928711,115.757156 
M1610.352173,139.943787 
	C1613.843506,138.966568 1617.556396,138.448547 1620.770508,136.897141 
	C1624.891357,134.908096 1626.614624,131.036072 1625.779663,126.469643 
	C1624.952148,121.944267 1621.380981,120.474991 1617.363403,120.035797 
	C1614.944946,119.771408 1612.473877,119.987175 1609.764893,119.987175 
	C1608.802246,125.888649 1607.769409,131.427353 1607.120361,137.010666 
	C1607.017578,137.895660 1608.643555,138.981613 1610.352173,139.943787 
z"></path>
<path fill="#D71F38" opacity="1.000000" stroke="none" d="
M1444.022705,157.973816 
	C1453.917114,140.993805 1463.676880,124.358566 1473.306030,107.648117 
	C1474.867188,104.938828 1476.533081,103.555984 1479.926025,103.719162 
	C1486.698364,104.044868 1493.497437,103.815720 1500.532837,103.815720 
	C1506.896606,130.871933 1513.162842,157.513885 1519.496094,184.440048 
	C1511.289673,184.440048 1503.662720,184.440048 1495.543701,184.440048 
	C1494.742065,181.143494 1493.701050,177.839966 1493.185425,174.456360 
	C1492.702881,171.290146 1491.146484,170.447510 1488.125122,170.520615 
	C1480.474487,170.705734 1472.807861,170.396942 1465.167480,170.735077 
	C1463.297729,170.817841 1460.394897,172.221329 1459.855225,173.704620 
	C1456.283203,183.522003 1449.325073,186.230728 1439.655273,184.666183 
	C1436.619995,184.175095 1433.438354,184.589615 1429.133301,184.589615 
	C1434.371826,175.225754 1439.108154,166.759659 1444.022705,157.973816 
M1475.134766,144.602081 
	C1473.538940,147.759018 1471.943115,150.915955 1470.171997,154.419662 
	C1476.739868,154.419662 1482.489990,154.419662 1488.684448,154.419662 
	C1487.789062,149.965378 1486.948608,145.793259 1486.112061,141.620346 
	C1485.300049,137.570145 1484.492188,133.519089 1483.527832,128.694000 
	C1480.566528,134.303894 1478.021240,139.125473 1475.134766,144.602081 
z"></path>
<path fill="#D72038" opacity="1.000000" stroke="none" d="
M1750.861572,104.727928 
	C1757.394531,131.313141 1763.749634,157.500397 1770.227295,184.193024 
	C1761.997314,184.193024 1754.290649,184.193024 1746.473633,184.193024 
	C1746.242065,183.402466 1745.989258,182.615540 1745.780884,181.817017 
	C1742.849609,170.585831 1742.851196,170.585327 1731.017334,170.579758 
	C1729.684326,170.579132 1728.319092,170.770340 1727.023438,170.550461 
	C1716.756470,168.808121 1708.916138,171.371704 1705.219482,182.142563 
	C1704.837524,183.255478 1702.840698,184.192139 1701.441284,184.485977 
	C1699.525024,184.888275 1697.463013,184.600464 1695.463501,184.601471 
	C1690.648071,184.603882 1685.832642,184.602249 1680.191162,184.602249 
	C1681.740845,181.458466 1682.880005,178.765808 1684.334717,176.255966 
	C1697.774902,153.065140 1711.248657,129.893555 1724.807373,106.771881 
	C1725.533936,105.533180 1727.099121,103.969536 1728.291870,103.954224 
	C1735.752930,103.858376 1743.219116,104.159950 1750.861572,104.727928 
M1729.448730,137.908157 
	C1726.651855,143.253311 1723.855103,148.598465 1720.803101,154.431244 
	C1727.575806,154.431244 1733.361328,154.431244 1739.673340,154.431244 
	C1738.773193,149.968567 1737.924316,145.792938 1737.089966,141.614349 
	C1736.276489,137.539200 1735.478027,133.461029 1734.508667,128.551682 
	C1732.642456,132.010864 1731.225098,134.637955 1729.448730,137.908157 
z"></path>
<path fill="#D81D35" opacity="1.000000" stroke="none" d="
M92.078781,127.202583 
	C99.282921,113.289413 110.382332,106.173729 125.728745,107.049377 
	C139.975372,107.862267 150.249329,115.314240 155.561707,128.516022 
	C160.867981,141.702652 158.502762,154.082657 149.065475,164.752167 
	C138.238968,176.992294 119.734322,179.548187 105.806900,171.056107 
	C90.872917,161.950302 85.416359,144.853973 92.078781,127.202583 
z"></path>
<path fill="#D61E36" opacity="1.000000" stroke="none" d="
M1439.356689,106.428192 
	C1448.214233,110.930061 1451.197998,118.099068 1450.439697,127.275108 
	C1448.841553,146.611008 1437.121216,156.841431 1415.394775,157.841019 
	C1411.135376,158.036957 1405.479858,156.822067 1403.014038,159.061279 
	C1400.465210,161.375946 1400.985107,167.099777 1400.222778,171.343094 
	C1399.460693,175.584808 1398.773071,179.839859 1398.016113,184.304672 
	C1390.487671,184.304672 1383.239014,184.304672 1375.490234,184.304672 
	C1379.982910,157.428925 1384.440552,130.762756 1388.905029,104.055550 
	C1403.256714,104.055550 1417.060547,103.939194 1430.859009,104.154579 
	C1433.590454,104.197212 1436.302002,105.514557 1439.356689,106.428192 
M1413.505127,120.164742 
	C1411.892456,120.240166 1410.279785,120.315582 1408.473145,120.400070 
	C1407.400269,127.343422 1406.380737,133.941147 1405.246704,141.280487 
	C1410.198975,140.713364 1414.524902,140.539627 1418.701416,139.658051 
	C1423.890381,138.562790 1427.373779,133.342789 1426.992310,128.117126 
	C1426.623901,123.070045 1424.515747,121.263382 1417.871704,120.377373 
	C1416.721924,120.224045 1415.550415,120.233742 1413.505127,120.164742 
z"></path>
<path fill="#D62038" opacity="1.000000" stroke="none" d="
M550.035950,114.003143 
	C550.036133,119.809433 550.036133,125.118004 550.036133,131.779221 
	C556.829773,125.777481 563.999084,123.287109 572.089233,125.216080 
	C579.844666,127.065262 585.984924,131.337280 590.304138,138.162689 
	C597.585571,149.669128 596.239929,165.322037 587.035461,175.223679 
	C577.201599,185.802414 565.816406,186.773712 550.367188,178.117172 
	C550.168945,179.626572 549.986450,181.015564 549.762451,182.721100 
	C544.224548,182.721100 538.651184,182.721100 532.745483,182.721100 
	C532.745483,155.337036 532.745483,127.959267 532.745483,100.196228 
	C538.331116,100.196228 543.866211,100.196228 550.035767,100.196228 
	C550.035767,104.632660 550.035767,109.069046 550.035950,114.003143 
M552.570435,147.442474 
	C548.675049,155.669647 551.135437,163.581680 558.600891,166.835114 
	C565.412354,169.803513 573.044434,166.778473 576.100769,159.898911 
	C578.688538,154.074081 576.474731,146.570877 571.146301,143.106674 
	C565.269897,139.286224 558.770203,140.606628 552.570435,147.442474 
z"></path>
<path fill="#D61F37" opacity="1.000000" stroke="none" d="
M254.650284,180.751648 
	C239.473145,187.169495 225.748444,184.885254 212.247147,175.325546 
	C215.155869,170.243118 218.005188,165.264450 221.133347,159.798569 
	C223.180573,160.849670 224.939041,162.162933 226.906998,162.682022 
	C231.812057,163.975830 236.768066,165.332764 241.787964,165.857224 
	C246.131195,166.311020 249.118805,163.615677 249.843826,159.288116 
	C250.531570,155.183075 248.002975,152.779007 244.449661,151.326157 
	C239.365921,149.247574 234.129181,147.489029 229.204315,145.088104 
	C220.465714,140.827911 214.935730,134.046722 215.303772,123.876816 
	C215.700378,112.917603 220.824356,104.415794 231.192963,100.582367 
	C243.085526,96.185509 254.667145,98.455086 265.937378,104.865112 
	C263.319916,110.024117 260.867096,114.858643 258.744965,119.041389 
	C253.355545,117.917885 248.592194,116.506569 243.738281,116.042664 
	C239.706406,115.657333 236.024811,117.292664 235.060196,121.847618 
	C234.089188,126.432777 236.851364,129.096115 240.687927,130.679398 
	C244.836411,132.391388 249.154709,133.688858 253.321213,135.360840 
	C263.095215,139.283112 269.511200,146.014999 269.683197,157.020996 
	C269.852509,167.856964 264.751984,175.766830 254.650284,180.751648 
z"></path>
<path fill="#D61F37" opacity="1.000000" stroke="none" d="
M1219.822144,157.801224 
	C1218.923096,165.500488 1218.024048,173.199753 1217.148193,180.700836 
	C1204.852905,184.979172 1192.901611,185.863907 1181.351807,181.342361 
	C1164.465332,174.731552 1155.136719,159.415619 1161.042725,139.327301 
	C1169.089478,111.957588 1202.483398,95.964821 1228.869019,107.270592 
	C1227.566040,114.816383 1226.246582,122.457741 1224.823730,130.697678 
	C1217.348145,122.502014 1208.489136,121.276848 1198.785156,124.410210 
	C1189.676392,127.351387 1182.740723,136.495850 1182.093994,146.062347 
	C1181.333130,157.315689 1188.449585,164.725464 1200.369141,164.913513 
	C1207.471191,165.025574 1213.673096,162.398239 1219.559814,158.000763 
	C1219.861206,157.844711 1219.822144,157.801224 1219.822144,157.801224 
z"></path>
<path fill="#D71F37" opacity="1.000000" stroke="none" d="
M78.179535,101.293976 
	C84.562309,84.858971 96.498810,74.600243 113.322594,73.587563 
	C136.857910,72.170914 160.542282,73.230217 185.096664,73.230217 
	C177.554138,81.667030 170.478760,89.729385 163.165192,97.569519 
	C162.277740,98.520874 160.109604,98.524353 158.529755,98.543915 
	C146.034088,98.698593 133.514923,98.308357 121.045685,98.935173 
	C101.088959,99.938370 86.547707,112.589546 81.836166,132.148941 
	C81.565186,133.273926 81.183517,134.372238 80.602554,136.326752 
	C75.006760,124.561363 73.935570,113.318413 78.179535,101.293976 
z"></path>
<path fill="#D61E36" opacity="1.000000" stroke="none" d="
M474.376465,129.247833 
	C486.232544,122.759155 491.261139,123.019417 505.655029,130.854294 
	C505.850647,129.340652 506.029785,127.954292 506.247650,126.268326 
	C511.781128,126.268326 517.358704,126.268326 523.251221,126.268326 
	C523.251221,145.038177 523.251221,163.761902 523.251221,182.759277 
	C517.660034,182.759277 512.230591,182.759277 506.376740,182.759277 
	C506.149872,181.374588 505.901794,179.860519 505.835327,179.454880 
	C499.949036,181.058502 494.018341,184.109833 488.163483,183.970718 
	C475.940857,183.680283 467.365540,176.828140 463.049072,165.254013 
	C458.707886,153.613678 461.712433,140.447205 470.239899,132.634842 
	C471.463562,131.513794 472.778931,130.492905 474.376465,129.247833 
M480.332825,160.804077 
	C483.463928,166.400024 488.313843,168.846909 494.528412,167.701019 
	C499.830933,166.723312 503.511719,163.344818 504.936859,158.048645 
	C506.479858,152.314301 504.406464,146.932373 499.688263,143.492569 
	C495.136902,140.174408 488.759521,140.185257 484.265717,143.518875 
	C479.209137,147.270020 477.710785,153.065460 480.332825,160.804077 
z"></path>
<path fill="#D51E36" opacity="1.000000" stroke="none" d="
M165.192932,151.305817 
	C165.552872,149.807739 165.845459,148.684601 166.333084,146.812836 
	C171.939804,156.603149 172.848038,166.480667 170.457336,176.479889 
	C165.659851,196.545639 149.808350,209.491455 129.177185,209.885895 
	C107.549255,210.299393 85.907265,209.978745 64.271423,209.965179 
	C63.823689,209.964890 63.376060,209.796524 62.210842,209.562378 
	C69.585228,201.369217 76.566704,193.439590 83.813278,185.760101 
	C84.824341,184.688644 87.133537,184.517731 88.851151,184.489075 
	C101.660072,184.275345 114.491150,184.609848 127.277145,183.988113 
	C145.472229,183.103317 161.083389,169.437653 165.192932,151.305817 
z"></path>
<path fill="#D52038" opacity="1.000000" stroke="none" d="
M647.724304,126.083038 
	C653.127197,126.002243 658.108765,126.002243 663.483154,126.002243 
	C663.483154,144.929962 663.483154,163.625061 663.483154,182.674438 
	C658.083008,182.674438 652.674622,182.674438 646.959595,182.674438 
	C646.646484,181.344086 646.288452,179.822906 645.918152,178.249420 
	C630.124756,187.170502 618.373352,185.697662 608.194153,173.642151 
	C599.390686,163.215958 599.420349,146.244614 608.261169,135.339020 
	C617.879089,123.474800 629.990845,121.961166 645.811829,130.646057 
	C646.308716,129.151917 646.805847,127.657883 647.724304,126.083038 
M625.020264,143.291046 
	C620.663452,147.153397 617.690796,151.716522 619.531311,157.741440 
	C621.182861,163.147614 624.683044,167.009445 630.675781,167.856735 
	C636.222412,168.640930 641.760376,165.788666 644.438904,160.805222 
	C647.058167,155.932007 646.229614,149.488617 642.471191,145.502838 
	C637.856995,140.609512 632.719543,139.813812 625.020264,143.291046 
z"></path>
<path fill="#D42037" opacity="1.000000" stroke="none" d="
M777.274841,125.979378 
	C782.500977,125.979141 787.261475,125.979141 793.013062,125.979141 
	C785.940186,135.978119 779.441406,145.165451 772.822937,154.522003 
	C779.928833,163.775360 786.978210,172.955200 794.693542,183.002197 
	C787.576233,183.002197 781.492432,183.158966 775.428894,182.877899 
	C774.121338,182.817291 772.599854,181.405853 771.666626,180.228439 
	C766.658508,173.909912 761.805237,167.468658 756.041382,159.952042 
	C756.041382,168.335159 756.041382,175.235641 756.041382,182.577759 
	C749.978577,182.577759 744.277161,182.577759 738.262573,182.577759 
	C738.262573,155.264282 738.262573,127.872551 738.262573,100.142288 
	C743.897461,100.142288 749.473999,100.142288 755.743408,100.142288 
	C755.743408,115.752327 755.743408,131.408371 755.743408,147.064407 
	C756.105652,147.158798 756.467834,147.253204 756.830078,147.347595 
	C761.070862,141.466995 765.470093,135.691788 769.482422,129.659256 
	C771.359375,126.837334 773.444275,125.379257 777.274841,125.979378 
z"></path>
<path fill="#D61F37" opacity="1.000000" stroke="none" d="
M1545.000000,103.815147 
	C1557.772827,103.815109 1570.045532,103.815109 1582.671875,103.815109 
	C1581.833374,109.932686 1581.075073,115.465202 1580.245972,121.514938 
	C1573.899536,121.514938 1567.835449,121.514938 1561.542358,121.514938 
	C1558.649780,139.237289 1555.771973,156.434113 1553.057861,173.656738 
	C1551.340088,184.557037 1551.449463,184.574234 1540.275146,184.573746 
	C1536.639893,184.573578 1533.004639,184.573715 1528.739502,184.573715 
	C1532.159058,163.450348 1535.489502,142.877243 1538.903076,121.790474 
	C1532.840210,121.790474 1527.083984,121.790474 1520.523193,121.790474 
	C1521.515991,115.592049 1522.415283,109.977325 1523.402222,103.815186 
	C1530.620483,103.815186 1537.560181,103.815186 1545.000000,103.815147 
z"></path>
<path fill="#D72038" opacity="1.000000" stroke="none" d="
M1370.823730,176.900604 
	C1370.322754,179.593994 1369.903076,181.864349 1369.444214,184.346573 
	C1353.049072,184.346573 1336.791138,184.346573 1319.751953,184.346573 
	C1324.302612,157.551666 1328.800171,131.069305 1333.361938,104.208847 
	C1340.824951,104.208847 1348.197998,104.208847 1355.928955,104.208847 
	C1352.502075,124.799187 1349.106445,145.201263 1345.610229,166.207764 
	C1354.712158,166.207764 1363.277100,166.207764 1372.374756,166.207764 
	C1371.828369,170.025848 1371.366821,173.251694 1370.823730,176.900604 
z"></path>
<path fill="#D61F37" opacity="1.000000" stroke="none" d="
M672.453125,168.989777 
	C672.488342,154.839554 672.521362,141.186920 672.572144,127.534378 
	C672.573303,127.226143 672.777344,126.918678 672.999451,126.293999 
	C678.452698,126.293999 684.012573,126.293999 689.909851,126.293999 
	C690.055176,128.605194 690.197571,130.870819 690.373840,133.674545 
	C691.287109,132.995300 692.135498,132.615128 692.621399,131.964310 
	C697.751282,125.093147 704.741638,123.444374 712.623840,125.256989 
	C720.789429,127.134796 725.967590,132.601624 728.154602,140.551727 
	C729.155212,144.189133 729.416626,148.108688 729.481812,151.909393 
	C729.655518,162.039322 729.540894,172.174179 729.540894,182.662231 
	C723.468018,182.662231 717.747620,182.662231 711.415039,182.662231 
	C711.415039,177.059219 711.455261,171.441910 711.403259,165.825439 
	C711.355469,160.669220 711.500366,155.486725 711.023438,150.365829 
	C710.539368,145.167770 706.791077,142.046799 701.649292,141.757156 
	C696.370239,141.459808 691.798096,144.359665 690.968872,149.451645 
	C690.200806,154.168076 690.309570,159.042664 690.223999,163.851028 
	C690.114563,169.998260 690.197449,176.148941 690.197449,182.656708 
	C684.353455,182.656708 678.774048,182.656708 672.453003,182.656708 
	C672.453003,178.332428 672.453003,173.909912 672.453125,168.989777 
z"></path>
<path fill="#D61F37" opacity="1.000000" stroke="none" d="
M375.456146,179.554459 
	C357.544495,190.655563 334.757202,181.031784 330.167542,161.162125 
	C326.797577,146.572952 334.889191,131.911514 348.923523,126.653099 
	C362.664612,121.504547 378.190491,127.121094 385.038330,139.717758 
	C392.567566,153.567841 389.327850,169.145889 376.976624,178.471649 
	C376.578186,178.772491 376.163330,179.051620 375.456146,179.554459 
M361.814331,167.454620 
	C370.484680,164.784241 374.549927,157.440445 371.581024,149.811188 
	C368.785736,142.627899 360.694183,139.245499 353.921783,142.429321 
	C348.666138,144.900116 345.243042,151.502823 346.426697,156.886353 
	C347.974640,163.926682 352.987915,167.616226 361.814331,167.454620 
z"></path>
<path fill="#D61F37" opacity="1.000000" stroke="none" d="
M1678.575073,160.640808 
	C1677.250122,168.778168 1676.020264,176.487457 1674.768066,184.337036 
	C1667.244385,184.337036 1659.981934,184.337036 1652.235107,184.337036 
	C1656.552856,157.474304 1660.820557,130.922897 1665.130249,104.110596 
	C1672.578369,104.110596 1679.831787,104.110596 1687.557617,104.110596 
	C1684.576416,122.929520 1681.623291,141.571121 1678.575073,160.640808 
z"></path>
<path fill="#D52038" opacity="1.000000" stroke="none" d="
M316.441467,182.634613 
	C303.266846,186.704529 289.901611,182.848511 281.804596,172.897995 
	C274.609161,164.055450 273.793335,149.971680 279.943237,139.050095 
	C288.711243,123.478989 314.408112,118.569031 328.342896,134.300629 
	C324.615234,138.070938 320.895050,141.833679 318.038147,144.723282 
	C312.857483,143.602142 308.348572,141.851791 303.881866,141.953522 
	C301.249359,142.013443 298.116058,144.528290 296.201904,146.782898 
	C291.708679,152.075272 292.488983,159.232132 297.418915,163.867599 
	C303.077332,169.188034 309.164795,168.983582 316.765076,163.089966 
	C320.545441,166.934952 324.345642,170.800110 328.864227,175.395935 
	C324.694427,177.846954 320.750549,180.165192 316.441467,182.634613 
z"></path>
<path fill="#D51E36" opacity="1.000000" stroke="none" d="
M419.171997,122.692230 
	C419.665375,128.722977 424.439636,124.396469 426.839691,126.792580 
	C426.839691,131.384338 426.839691,136.441681 426.839691,141.883530 
	C424.437622,142.061722 422.045593,142.239166 419.273834,142.444778 
	C419.273834,155.864365 419.273834,169.108994 419.273834,182.683594 
	C413.161743,182.683594 407.439697,182.683594 401.276611,182.683594 
	C401.276611,169.398972 401.276611,156.156784 401.276611,142.477051 
	C398.456055,142.301346 396.035889,142.150574 393.297729,141.979996 
	C393.297729,136.861435 393.297729,131.776718 393.297729,126.217567 
	C395.619415,126.085991 398.021912,125.949837 400.865051,125.788704 
	C400.865051,120.129219 400.865051,114.546112 400.865051,108.556015 
	C406.997986,108.556015 412.700562,108.556015 419.170288,108.556015 
	C419.170288,113.064011 419.170288,117.644524 419.171997,122.692230 
z"></path>
<path fill="#D51C34" opacity="1.000000" stroke="none" d="
M435.608215,177.929855 
	C435.607086,160.474548 435.607086,143.514069 435.607086,126.270203 
	C441.665436,126.270203 447.232605,126.270203 453.072571,126.270203 
	C453.072571,145.110779 453.072571,163.713211 453.072571,182.673401 
	C447.489929,182.673401 441.913025,182.673401 435.932495,182.673401 
	C435.825714,181.269684 435.717529,179.847183 435.608215,177.929855 
z"></path>
<path fill="#D42037" opacity="1.000000" stroke="none" d="
M439.781860,99.577934 
	C445.040802,97.335052 449.302551,98.314613 452.505707,102.579338 
	C455.182220,106.142899 455.094910,110.113678 452.789703,113.804939 
	C450.291046,117.805977 446.153076,119.498581 442.015594,117.747566 
	C439.184326,116.549347 436.301483,113.671242 435.099182,110.840225 
	C433.210571,106.393227 435.408203,102.454750 439.781860,99.577934 
z"></path>
<path fill="#D52038" opacity="1.000000" stroke="none" d="
M977.589111,123.597328 
	C983.001282,117.119049 989.708008,114.694626 998.371460,114.742744 
	C1012.316711,114.820213 1025.425659,116.526558 1036.929932,125.608086 
	C1037.024658,125.974976 1036.898193,126.111588 1036.521973,126.082245 
	C1032.393799,127.319061 1029.652832,126.537788 1027.818726,122.658455 
	C1027.251221,121.458138 1025.444824,120.638741 1024.032471,120.092339 
	C1022.065063,119.331184 1019.961548,118.806168 1017.869507,118.504730 
	C1011.513489,117.588913 1005.106873,116.038025 998.774353,116.263214 
	C993.863831,116.437843 988.974670,118.737907 984.196350,120.432404 
	C981.993225,121.213699 980.077576,122.805786 978.031616,124.030228 
	C978.031616,124.030235 977.732483,123.745804 977.589111,123.597328 
z"></path>
<path fill="#BA4457" opacity="1.000000" stroke="none" d="
M800.060425,166.054825 
	C805.286377,162.217407 809.600403,162.024567 813.472107,165.190048 
	C816.962830,168.044098 818.284729,172.912888 816.437012,176.888214 
	C814.400818,181.269089 810.872314,183.313904 806.010742,183.004684 
	C799.725952,182.604935 793.367493,173.368683 800.060425,166.054825 
M800.022583,169.683823 
	C800.487915,172.604340 800.108826,176.162415 801.682190,178.246353 
	C802.971802,179.954315 806.682800,180.731323 809.145813,180.440857 
	C812.632629,180.029678 814.828735,177.342697 815.032532,173.510681 
	C815.231323,169.773041 813.646851,166.942017 810.219666,165.664520 
	C806.231689,164.178040 802.772583,165.300247 800.022583,169.683823 
z"></path>
<path fill="#D52038" opacity="1.000000" stroke="none" d="
M1040.112183,128.892151 
	C1046.495728,136.102890 1047.254639,143.735016 1041.971802,152.064529 
	C1039.950684,155.251373 1037.170288,157.956619 1034.415283,160.985184 
	C1034.094849,161.089020 1033.984741,160.982697 1033.972412,160.563675 
	C1036.656006,155.460297 1039.013550,150.532700 1042.152344,146.166824 
	C1044.767334,142.529617 1043.726807,139.322540 1042.513916,135.869186 
	C1041.709229,133.578140 1040.779785,131.330963 1039.959106,129.022903 
	C1040.012085,128.981659 1040.112183,128.892151 1040.112183,128.892151 
z"></path>
<path fill="#D52038" opacity="1.000000" stroke="none" d="
M1037.088135,125.906876 
	C1037.776489,126.299744 1038.401489,126.760704 1039.047241,127.577576 
	C1039.067993,127.933472 1038.940186,128.077759 1038.632446,128.014435 
	C1037.849243,127.337944 1037.373657,126.724770 1036.898193,126.111588 
	C1036.898193,126.111588 1037.024658,125.974976 1037.088135,125.906876 
z"></path>
<path fill="#D61F37" opacity="1.000000" stroke="none" d="
M1219.877441,157.868988 
	C1220.014648,157.818558 1220.129761,157.729431 1220.259766,157.677277 
	C1220.303589,157.659653 1220.385132,157.735764 1220.449463,157.769012 
	C1220.346680,157.828995 1220.243774,157.888992 1219.981567,157.875107 
	C1219.822144,157.801224 1219.861206,157.844711 1219.877441,157.868988 
z"></path>
<path fill="#D52038" opacity="1.000000" stroke="none" d="
M1039.135010,127.864075 
	C1039.467773,127.993195 1039.733398,128.191696 1040.055664,128.641174 
	C1040.112183,128.892151 1040.012085,128.981659 1039.760254,128.898956 
	C1039.259644,128.615646 1039.070312,128.369476 1038.940186,128.077759 
	C1038.940186,128.077759 1039.067993,127.933472 1039.135010,127.864075 
z"></path>
<path fill="#D81D35" opacity="1.000000" stroke="none" d="
M1038.632446,128.014435 
	C1039.070312,128.369476 1039.259644,128.615646 1039.707275,128.940186 
	C1040.779785,131.330963 1041.709229,133.578140 1042.513916,135.869186 
	C1043.726807,139.322540 1044.767334,142.529617 1042.152344,146.166824 
	C1039.013550,150.532700 1036.656006,155.460297 1033.917969,160.510071 
	C1032.737183,161.051743 1031.308228,160.847580 1030.504150,161.461700 
	C1019.545654,169.832245 1007.642212,165.948593 995.805786,164.542587 
	C986.967468,163.492691 980.578979,158.618423 975.084717,152.405121 
	C971.881042,148.782120 969.057861,144.465057 970.067627,139.106964 
	C970.417114,137.252411 971.329773,135.435501 972.292175,133.779816 
	C974.074036,130.714355 976.081970,127.780334 978.013672,124.410904 
	C980.077576,122.805786 981.993225,121.213699 984.196350,120.432404 
	C988.974670,118.737907 993.863831,116.437843 998.774353,116.263214 
	C1005.106873,116.038025 1011.513489,117.588913 1017.869507,118.504730 
	C1019.961548,118.806168 1022.065063,119.331184 1024.032471,120.092339 
	C1025.444824,120.638741 1027.251221,121.458138 1027.818726,122.658455 
	C1029.652832,126.537788 1032.393799,127.319061 1036.521973,126.082245 
	C1037.373657,126.724770 1037.849243,127.337944 1038.632446,128.014435 
z"></path>
<path fill="#FEFAFB" opacity="1.000000" stroke="none" d="
M1291.732666,152.588989 
	C1285.928345,160.300140 1278.797974,164.893234 1269.229004,164.966995 
	C1256.481812,165.065231 1248.195679,155.297913 1250.282227,142.641159 
	C1252.740356,127.730545 1272.247559,117.926590 1285.699829,124.840874 
	C1296.424438,130.353210 1298.564453,139.785202 1291.732666,152.588989 
z"></path>
<path fill="#FEF4F5" opacity="1.000000" stroke="none" d="
M1609.911133,139.959229 
	C1608.643555,138.981613 1607.017578,137.895660 1607.120361,137.010666 
	C1607.769409,131.427353 1608.802246,125.888649 1609.764893,119.987175 
	C1612.473877,119.987175 1614.944946,119.771408 1617.363403,120.035797 
	C1621.380981,120.474991 1624.952148,121.944267 1625.779663,126.469643 
	C1626.614624,131.036072 1624.891357,134.908096 1620.770508,136.897141 
	C1617.556396,138.448547 1613.843506,138.966568 1609.911133,139.959229 
z"></path>
<path fill="#FCEDEE" opacity="1.000000" stroke="none" d="
M1475.305420,144.274567 
	C1478.021240,139.125473 1480.566528,134.303894 1483.527832,128.694000 
	C1484.492188,133.519089 1485.300049,137.570145 1486.112061,141.620346 
	C1486.948608,145.793259 1487.789062,149.965378 1488.684448,154.419662 
	C1482.489990,154.419662 1476.739868,154.419662 1470.171997,154.419662 
	C1471.943115,150.915955 1473.538940,147.759018 1475.305420,144.274567 
z"></path>
<path fill="#FCEDEE" opacity="1.000000" stroke="none" d="
M1729.628296,137.586609 
	C1731.225098,134.637955 1732.642456,132.010864 1734.508667,128.551682 
	C1735.478027,133.461029 1736.276489,137.539200 1737.089966,141.614349 
	C1737.924316,145.792938 1738.773193,149.968567 1739.673340,154.431244 
	C1733.361328,154.431244 1727.575806,154.431244 1720.803101,154.431244 
	C1723.855103,148.598465 1726.651855,143.253311 1729.628296,137.586609 
z"></path>
<path fill="#FEF4F5" opacity="1.000000" stroke="none" d="
M1413.947021,120.166428 
	C1415.550415,120.233742 1416.721924,120.224045 1417.871704,120.377373 
	C1424.515747,121.263382 1426.623901,123.070045 1426.992310,128.117126 
	C1427.373779,133.342789 1423.890381,138.562790 1418.701416,139.658051 
	C1414.524902,140.539627 1410.198975,140.713364 1405.246704,141.280487 
	C1406.380737,133.941147 1407.400269,127.343422 1408.473145,120.400070 
	C1410.279785,120.315582 1411.892456,120.240166 1413.947021,120.166428 
z"></path>
<path fill="#FDF8F8" opacity="1.000000" stroke="none" d="
M552.783203,147.118149 
	C558.770203,140.606628 565.269897,139.286224 571.146301,143.106674 
	C576.474731,146.570877 578.688538,154.074081 576.100769,159.898911 
	C573.044434,166.778473 565.412354,169.803513 558.600891,166.835114 
	C551.135437,163.581680 548.675049,155.669647 552.783203,147.118149 
z"></path>
<path fill="#FDF8F8" opacity="1.000000" stroke="none" d="
M480.157440,160.445831 
	C477.710785,153.065460 479.209137,147.270020 484.265717,143.518875 
	C488.759521,140.185257 495.136902,140.174408 499.688263,143.492569 
	C504.406464,146.932373 506.479858,152.314301 504.936859,158.048645 
	C503.511719,163.344818 499.830933,166.723312 494.528412,167.701019 
	C488.313843,168.846909 483.463928,166.400024 480.157440,160.445831 
z"></path>
<path fill="#FDF8F8" opacity="1.000000" stroke="none" d="
M625.348083,143.096298 
	C632.719543,139.813812 637.856995,140.609512 642.471191,145.502838 
	C646.229614,149.488617 647.058167,155.932007 644.438904,160.805222 
	C641.760376,165.788666 636.222412,168.640930 630.675781,167.856735 
	C624.683044,167.009445 621.182861,163.147614 619.531311,157.741440 
	C617.690796,151.716522 620.663452,147.153397 625.348083,143.096298 
z"></path>
<path fill="#FDF8F8" opacity="1.000000" stroke="none" d="
M361.431580,167.551086 
	C352.987915,167.616226 347.974640,163.926682 346.426697,156.886353 
	C345.243042,151.502823 348.666138,144.900116 353.921783,142.429321 
	C360.694183,139.245499 368.785736,142.627899 371.581024,149.811188 
	C374.549927,157.440445 370.484680,164.784241 361.431580,167.551086 
z"></path>
<path fill="#FDDCE1" opacity="1.000000" stroke="none" d="
M800.187988,169.337219 
	C802.772583,165.300247 806.231689,164.178040 810.219666,165.664520 
	C813.646851,166.942017 815.231323,169.773041 815.032532,173.510681 
	C814.828735,177.342697 812.632629,180.029678 809.145813,180.440857 
	C806.682800,180.731323 802.971802,179.954315 801.682190,178.246353 
	C800.108826,176.162415 800.487915,172.604340 800.187988,169.337219 
M803.793457,175.988449 
	C804.995972,177.841415 804.995972,177.841415 806.762146,175.135315 
	C807.884155,176.199677 808.987244,177.246078 810.587219,178.763840 
	C810.435364,176.670944 810.040039,175.261398 810.289978,173.977448 
	C811.446228,168.038086 810.072937,166.834503 803.778687,168.788834 
	C803.778687,170.845840 803.778687,172.980423 803.793457,175.988449 
z"></path>
<path fill="#BA4457" opacity="1.000000" stroke="none" d="
M803.786072,175.551727 
	C803.778687,172.980423 803.778687,170.845840 803.778687,168.788834 
	C810.072937,166.834503 811.446228,168.038086 810.289978,173.977448 
	C810.040039,175.261398 810.435364,176.670944 810.587219,178.763840 
	C808.987244,177.246078 807.884155,176.199677 806.762146,175.135315 
	C804.995972,177.841415 804.995972,177.841415 803.786072,175.551727 
z"></path>
</svg>