<svg xmlns="http://www.w3.org/2000/svg" width="96" height="32" viewBox="0 0 120.512 40"><path fill-rule="evenodd" clip-rule="evenodd" fill="#E00819" d="M5.906 26.948l.075-.017.075.015c.015.004 1.466.285 3.028.285 1.559 0 3.002-.281 3.018-.285l.074-.015.076.015c2.089.425 3.856-.492 4.526-1.615.556-.931.417-1.981-.393-2.956-1.078-1.298-1.243-2.631-1.247-3.323H2.952c-.002.692-.166 2.021-1.246 3.321-.801.965-.938 2.006-.384 2.931.681 1.139 2.464 2.069 4.584 1.644zm67.222-10.021a.8.8 0 0 1 .799.792v6.585a.802.802 0 0 1-.799.796.797.797 0 0 1-.79-.796v-6.585c0-.434.356-.792.79-.792z"/><path fill="#E00819" d="M83.585 17.193c.439.069.734.329.659.767a.793.793 0 0 1-.919.654c-1.606-.272-3.029-.392-4.162-.164-1.009.21-1.792.635-2.248 1.473-.242.434-.406.752-.43 1.106-.027.302-.094.733.146 1.068l.15-.112c.151.208.195.519.426.7.248.191.54.368.859.521 1.734.829 4.342 1.064 6.335.312a.814.814 0 0 1 1.035.469c.153.417.022.726-.395.882-2.389.896-5.431.658-7.514-.338-.423-.2-.81-.434-1.146-.7a4.461 4.461 0 0 1-.906-.916v-.007c-.479-.671-.643-1.327-.594-1.996.049-.622.282-1.221.631-1.837.822-1.213 1.896-1.66 3.365-1.961 1.36-.274 2.93-.23 4.708.079z"/><path fill-rule="evenodd" clip-rule="evenodd" fill="#E00819" d="M80.554 20.535h-4.908v1.175h4.908a.596.596 0 0 0 .605-.587.601.601 0 0 0-.605-.588zm7.457-1.2v4.969a.8.8 0 0 1-.796.796c-.436 0-.739-.36-.739-.796v-4.473c-.219-1.892 1.675-4.039 3.842-2.024.021.026.049.054.072.079h.004c.012.019.029.037.033.054 1.181 1.531 2.021 3.204 3.092 4.805l.007.008v.004l.011.017c.068.104.119.209.184.315.631.943 1.539.927 1.566-.24.018-1.024.018-3.831-.069-5.015-.029-.438.361-.802.795-.802.438 0 .688.362.688.802v4.165c.078 1.302-.31 2.377-.623 2.689-.434.489-.994.625-1.596.614a1.45 1.45 0 0 1-.314-.041c-1.215-.255-3.606-4.494-4.025-5.099-.16-.239-.32-.466-.467-.671-.127-.17-.266-.362-.416-.556-.702-.61-1.248-.117-1.249.4zm5.525 3.437a.746.746 0 0 1 .102.358l-.102-.358z"/><path fill="#E00819" d="M60.583 17.458a.804.804 0 0 0-1.052-.427.803.803 0 0 0-.419 1.052 20.781 20.781 0 0 0 3.361 5.334c.879 1.008 1.696 1.752 2.545 1.854.877.106 1.622-.427 2.685-1.366.958-.853 1.55-1.794 2.188-2.862a29.406 29.406 0 0 0 1.479-2.9.804.804 0 0 0-.4-1.061.804.804 0 0 0-1.058.41 28.1 28.1 0 0 1-1.429 2.724c-.466.796-2.235 3.6-3.366 3.467-1.393-.17-3.791-4.504-4.534-6.225z"/><path fill-rule="evenodd" clip-rule="evenodd" fill="#E00819" d="M57.546 16.927c.437 0 .792.358.792.792v6.585a.797.797 0 0 1-.792.796.797.797 0 0 1-.795-.796v-6.585c0-.434.354-.792.795-.792z"/><path fill="#E00819" d="M23.815 18.823c-.422.12-.868-.075-.994-.498a.814.814 0 0 1 .555-.996c3.681-.698 5.906-.171 7.709.686.743.473 1.463 1.021 1.82 1.652.371.668.533 1.289.463 1.993-.1 1.084-.723 2.096-1.9 2.788a6.514 6.514 0 0 1-1.834.691c-.604.133-1.221.2-1.816.237-.611.04-1.132.055-1.649-.015a5.2 5.2 0 0 1-1.681-.508c-.236-.115-.516-.334-.566-.564l-.022.059v-4.533c.271-.781 1.372-.552 1.379 0l.106 3.694c-.174.752 1.883.487 2.333.456a10.008 10.008 0 0 0 1.571-.196 4.93 4.93 0 0 0 1.375-.519c.693-.404 1.057-1.16 1.11-1.739.036-.375-.057-.779-.267-1.161-.236-.416-.606-.81-1.115-1.133-1.387-.783-3.395-1.242-6.577-.394zm21.252-1.365a.806.806 0 0 0-1.049-.427.801.801 0 0 0-.422 1.052 20.96 20.96 0 0 0 3.357 5.334c.881 1.008 1.697 1.752 2.546 1.854.878.106 1.625-.427 2.681-1.366.955-.853 1.551-1.794 2.19-2.862a28.46 28.46 0 0 0 1.483-2.9.805.805 0 0 0-.404-1.061.808.808 0 0 0-1.06.41 26.322 26.322 0 0 1-1.425 2.724c-.472.796-2.24 3.6-3.363 3.467-1.395-.17-3.793-4.504-4.534-6.225zm-1.104 7.338a.798.798 0 0 0 1.468-.623c-.803-1.886-2.024-3.811-3.355-5.342-.879-.998-1.695-1.748-2.55-1.85-.871-.106-1.622.429-2.677 1.366-.959.856-1.554 1.794-2.188 2.865-.625 1.041-1.117 2.081-1.484 2.899a.803.803 0 0 0 1.464.655c.347-.781.845-1.765 1.419-2.737.475-.788 2.244-3.592 3.373-3.456 1.395.171 3.791 4.498 4.53 6.223zm54.884-5.973c-.424.12-.867-.075-.988-.498a.807.807 0 0 1 .551-.996c3.679-.698 5.903-.171 7.707.686.743.473 1.465 1.021 1.824 1.652.37.668.526 1.289.463 1.993-.104 1.084-.725 2.096-1.905 2.788a6.415 6.415 0 0 1-1.827.691c-.614.133-1.222.2-1.826.237-.609.04-1.13.055-1.647-.015-.543-.064-1.067-.217-1.682-.508-.229-.115-.511-.334-.565-.564l-.018.058v-4.533c.268-.781 1.367-.552 1.378 0l.104 3.694c-.172.752 1.882.487 2.336.456.537-.031 1.07-.086 1.574-.196.477-.108.94-.271 1.367-.519.695-.404 1.062-1.16 1.111-1.739.043-.375-.051-.779-.268-1.161-.232-.416-.604-.81-1.107-1.133-1.393-.782-3.4-1.241-6.582-.393zm10.812 5.973a.802.802 0 1 1-1.476-.623 21.123 21.123 0 0 1 3.357-5.342c.884-.998 1.7-1.748 2.549-1.85.875-.106 1.625.429 2.681 1.366.96.856 1.555 1.794 2.188 2.865.625 1.041 1.115 2.081 1.484 2.899a.8.8 0 0 1-.406 1.057c-.4.184-.875 0-1.053-.402a28.68 28.68 0 0 0-1.427-2.737c-.474-.788-2.241-3.592-3.366-3.456-1.395.171-3.793 4.498-4.531 6.223z"/><path fill-rule="evenodd" clip-rule="evenodd" fill="#E00819" d="M11.896 26.725s.21-.56.633-.881c.207-.16.561-.103.387.217-.051.085-.555.417-.896.818-.062.075-.124-.154-.124-.154zm-4.979-.372s-.086-.588-.435-.996c-.17-.2-.524-.213-.417.138.026.091.453.521.701.983.046.086.151-.125.151-.125zm-.655.372s-.206-.56-.636-.881c-.208-.16-.555-.103-.378.217.048.085.554.417.894.818.061.075.12-.154.12-.154zm4.979-.372s.086-.588.438-.996c.17-.2.527-.213.418.138-.029.091-.453.521-.703.983-.043.086-.153-.125-.153-.125z"/><path fill="#1D1E1C" d="M11.993 27.044c-.111 0-.191-.09-.243-.279l-.013-.046.018-.046c.009-.025.229-.604.682-.95.207-.156.529-.144.636.036.042.07.071.195-.027.375-.032.056-.097.11-.249.232a4.91 4.91 0 0 0-.662.611l-.047.052-.095.015zm.779-1.136a.268.268 0 0 0-.153.055 1.807 1.807 0 0 0-.45.543c.158-.147.318-.276.438-.375.078-.062.164-.131.184-.153a.15.15 0 0 0 .021-.069c-.004.001-.015-.001-.04-.001zm-6.604 1.136h-.071l-.071-.069c-.202-.239-.478-.46-.659-.605-.16-.132-.219-.18-.25-.233-.101-.184-.07-.309-.027-.38.105-.179.424-.189.628-.033.46.344.677.925.686.95l.017.044-.013.046c-.049.186-.13.28-.24.28zm-.821-1.132c.006.007.009.031.033.075.011.013.1.084.177.146.118.096.274.221.429.366a1.76 1.76 0 0 0-.449-.535.308.308 0 0 0-.19-.052zm1.448.738h-.093l-.068-.104a4.803 4.803 0 0 0-.512-.721c-.135-.167-.184-.229-.202-.292-.054-.177-.011-.287.034-.35.131-.178.466-.134.643.077.372.433.466 1.043.469 1.068l.008.046-.021.042c-.113.231-.222.234-.258.234zm-.592-1.284c-.007 0-.011.025.007.084.01.019.082.106.146.186.094.116.219.271.34.441a1.835 1.835 0 0 0-.328-.623.278.278 0 0 0-.165-.088zm5.163 1.284c-.035 0-.143 0-.259-.231l-.022-.042.009-.048c.003-.025.097-.636.472-1.07.176-.209.513-.253.645-.075.045.062.087.175.029.356-.018.058-.064.116-.193.276-.146.182-.369.454-.519.731l-.043.079-.119.024zm.599-1.29a.284.284 0 0 0-.172.094 1.806 1.806 0 0 0-.33.629c.122-.177.251-.337.349-.456.062-.077.133-.162.146-.189.016-.052.007-.078.007-.078z"/><path fill-rule="evenodd" clip-rule="evenodd" fill="#FCE91E" d="M10.788 26.279s1.092-3.487-.555-5.564c-.148-.029-.3-.119-.467-.228 0 0-.182-.318-.615-.322-.424.004-.754.322-.754.322a1.24 1.24 0 0 1-.54.228C6.21 22.792 7.335 26.3 7.335 26.3c1.736-.658 3.413-.037 3.453-.021z"/><path fill="#1D1E1C" d="M7.239 26.496l-.049-.15c-.047-.147-1.129-3.61.549-5.725l.039-.05.063-.007c.138-.015.296-.081.472-.2-.004 0 .357-.346.837-.35a.887.887 0 0 1 .725.364c.13.084.266.165.386.186l.055.013.037.044c1.676 2.114.625 5.558.579 5.704l-.05.158-.153-.066a5.215 5.215 0 0 0-1.684-.27c-.589 0-1.147.099-1.657.292l-.149.057zm.699-5.642c-1.34 1.754-.688 4.57-.504 5.25a4.98 4.98 0 0 1 1.61-.257c.757 0 1.364.154 1.641.237.177-.67.809-3.48-.538-5.237a1.751 1.751 0 0 1-.463-.233l-.049-.052c-.006-.009-.15-.244-.485-.246-.355.002-.646.277-.647.279-.21.146-.395.228-.565.259z"/><path fill="#FFF" d="M10.286 23.846c0-.162.132-.292.291-.292.171 0 .301.13.301.292a.296.296 0 1 1-.592 0z"/><path fill="#1D1E1C" d="M10.577 24.294a.445.445 0 0 1 0-.889.44.44 0 0 1 .45.441c0 .25-.196.448-.45.448z"/><path fill-rule="evenodd" clip-rule="evenodd" fill="#1587C9" d="M3.312 20.952h2.116c.335 0 .603.272.603.602v1.413a.606.606 0 0 1-.603.608H3.312a.609.609 0 0 1-.606-.608v-1.413c0-.329.272-.602.606-.602z"/><path fill="#1D1E1C" d="M5.429 23.725H3.312a.758.758 0 0 1-.757-.758v-1.413c0-.414.34-.752.757-.752h2.116c.415 0 .754.338.754.752v1.413a.755.755 0 0 1-.753.758zm-2.117-2.622a.452.452 0 0 0-.455.451v1.413c0 .252.203.458.455.458h2.116c.25 0 .453-.206.453-.458v-1.413a.452.452 0 0 0-.453-.451H3.312z"/><g fill="#1D1E1C"><path d="M3.557 21.285h1.672a.46.46 0 0 1 .456.463v1.031a.457.457 0 0 1-.456.456H3.557a.46.46 0 0 1-.46-.456v-1.031c0-.254.205-.463.46-.463z"/><path d="M5.229 23.386H3.557a.608.608 0 0 1-.61-.606v-1.031a.61.61 0 0 1 .61-.612h1.672c.335 0 .606.274.606.612v1.031a.608.608 0 0 1-.606.606zm-1.672-1.948c-.171 0-.31.14-.31.311v1.031c0 .169.139.306.31.306h1.672a.307.307 0 0 0 .306-.306v-1.031a.31.31 0 0 0-.306-.311H3.557z"/></g><path fill-rule="evenodd" clip-rule="evenodd" fill="#EF9008" d="M5.685 22.521c-.758-.074-1.018-.952-1.08-1.235h.624a.46.46 0 0 1 .456.463v.772z"/><path fill="#1D1E1C" d="M5.835 22.688l-.165-.017c-.866-.086-1.147-1.057-1.212-1.353l-.042-.183h.812c.335 0 .606.274.606.612v.941zM4.8 21.438c.094.296.304.765.734.9v-.59a.31.31 0 0 0-.306-.311H4.8z"/><path fill-rule="evenodd" clip-rule="evenodd" fill="#EF9008" d="M4.194 21.285c-.057.259-.294 1.2-1.098 1.237v-.774c0-.254.205-.463.46-.463h.638z"/><path fill="#1D1E1C" d="M2.946 22.682v-.934a.61.61 0 0 1 .61-.612h.824l-.039.183c-.182.834-.633 1.327-1.237 1.354l-.158.009zm.611-1.244c-.171 0-.31.14-.31.311v.602c.432-.107.649-.555.753-.913h-.443z"/><path fill-rule="evenodd" clip-rule="evenodd" fill="#1587C9" d="M12.722 20.952h2.109c.34 0 .607.272.607.602v1.413a.607.607 0 0 1-.607.608h-2.109a.612.612 0 0 1-.609-.608v-1.413a.609.609 0 0 1 .609-.602z"/><path fill="#1D1E1C" d="M14.831 23.725h-2.109a.76.76 0 0 1-.762-.758v-1.413c0-.414.342-.752.762-.752h2.109c.419 0 .759.338.759.752v1.413c0 .419-.34.758-.759.758zm-2.109-2.622a.461.461 0 0 0-.459.451v1.413c0 .248.211.458.459.458h2.109a.46.46 0 0 0 .459-.458v-1.413a.455.455 0 0 0-.459-.451h-2.109z"/><g fill="#1D1E1C"><path d="M12.964 21.285h1.672c.255 0 .459.209.459.463v1.031a.459.459 0 0 1-.459.456h-1.672a.461.461 0 0 1-.459-.456v-1.031c0-.254.207-.463.459-.463z"/><path d="M14.636 23.386h-1.672a.609.609 0 0 1-.609-.606v-1.031a.61.61 0 0 1 .609-.612h1.672c.336 0 .61.274.61.612v1.031a.61.61 0 0 1-.61.606zm-1.672-1.948a.31.31 0 0 0-.308.311v1.031c0 .164.141.306.308.306h1.672a.307.307 0 0 0 .309-.306v-1.031a.31.31 0 0 0-.309-.311h-1.672z"/></g><path fill-rule="evenodd" clip-rule="evenodd" fill="#EF9008" d="M15.095 22.521c-.756-.074-1.021-.952-1.084-1.235h.625c.255 0 .459.209.459.463v.772z"/><path fill="#1D1E1C" d="M15.246 22.688l-.165-.017c-.871-.086-1.152-1.057-1.217-1.353l-.041-.183h.812c.336 0 .61.274.61.612v.941zm-1.038-1.25c.092.283.305.763.736.9v-.59a.31.31 0 0 0-.309-.311h-.427z"/><path fill-rule="evenodd" clip-rule="evenodd" fill="#EF9008" d="M13.599 21.285c-.049.259-.287 1.2-1.094 1.237v-.774c0-.254.207-.463.459-.463h.635z"/><path fill="#1D1E1C" d="M12.354 22.682v-.934a.61.61 0 0 1 .609-.612h.816l-.033.179c-.121.636-.508 1.325-1.234 1.358l-.158.009zm.61-1.244a.31.31 0 0 0-.308.311v.602c.46-.114.669-.62.751-.912h-.443z"/><path fill-rule="evenodd" clip-rule="evenodd" fill="#EC7E09" d="M6.927 26.077s-.574.073-.785.417c-.21.35.03.76.287.829 1.082.26 2.584.254 2.618.235.029.019 1.604.064 2.628-.235.252-.077.502-.479.287-.829-.212-.344-.787-.417-.787-.417-.056-.327-4.192-.189-4.248 0z"/><path fill="#1D1E1C" d="M9.456 27.723h-.002c-.23 0-.345-.004-.406-.013a2.128 2.128 0 0 1-.229.007c-.143 0-1.43-.007-2.426-.246a.685.685 0 0 1-.429-.414.718.718 0 0 1 .049-.64c.246-.402.868-.488.896-.49v.002c.382-.162 1.547-.199 2.54-.199 1.351 0 1.717.102 1.823.212.181.036.621.154.817.476a.688.688 0 0 1 .056.618c-.078.206-.245.377-.428.432-.785.23-1.843.255-2.261.255zm-.357-.311c.049.005.166.009.355.009.406 0 1.43-.023 2.178-.242.092-.028.188-.131.232-.25a.39.39 0 0 0-.031-.355c-.141-.229-.537-.329-.678-.349l-.11-.015-.011-.064c-.116-.048-.551-.114-1.585-.114-1.101 0-2.155.077-2.394.146l-.012.036-.097.012c-.141.02-.536.119-.677.349a.406.406 0 0 0-.026.37c.046.115.138.211.224.235.959.229 2.211.236 2.352.236.085 0 .148 0 .182-.003l.053-.026.045.025z"/><path fill="#1D1E1C" d="M11.181 26.217c-2.478-.311-4.223-.004-4.24-.002l-.053-.296c.072-.013 1.805-.319 4.331-.002l-.038.3z"/><path fill="#1D1E1C" d="M16.715 19.052c.587 0 1.056-.285 1.253-.762.217-.525.047-1.156-.445-1.65a13.385 13.385 0 0 0-1.613-1.338l-.088-2.923-2.814.161.003 1.028a29.402 29.402 0 0 0-3.333-1.439c-.1-.031-.433-.129-.649-.129-.212 0-.548.098-.658.134-.205.07-5.069 1.771-7.835 4.508-.49.494-.66 1.127-.442 1.652.197.475.666.758 1.253.758h.839c.001.573-.134 1.702-1.071 2.832-1.009 1.214-1.174 2.605-.451 3.814.942 1.579 3.17 2.421 5.32 2.017.327.06 1.651.285 3.101.285 1.447 0 2.764-.225 3.09-.285 2.16.406 4.316-.404 5.264-1.99.727-1.214.558-2.614-.461-3.841-.934-1.123-1.07-2.257-1.071-2.832h.808zm-2.94-5.787l1.302-.073.048 1.577a22.67 22.67 0 0 0-1.347-.796l-.003-.708zM.802 17.998c-.096-.233.011-.544.276-.812 2.64-2.612 7.495-4.311 7.532-4.323.145-.044.354-.094.419-.094.067 0 .274.048.406.09.049.017 4.905 1.713 7.545 4.327.268.267.374.577.278.811-.077.183-.275.287-.544.287H1.347c-.271-.001-.469-.102-.545-.286zm15.585 4.377c.81.975.948 2.025.393 2.956-.67 1.123-2.438 2.04-4.526 1.615l-.076-.015-.074.015c-.016.004-1.459.285-3.018.285-1.562 0-3.014-.281-3.028-.285l-.075-.015-.075.017c-2.12.425-3.903-.505-4.584-1.645-.554-.925-.417-1.966.384-2.931 1.08-1.3 1.244-2.629 1.246-3.321H15.14c.004.693.169 2.026 1.247 3.324z"/><path fill-rule="evenodd" clip-rule="evenodd" fill="#EC7E09" d="M.802 17.998c.076.184.274.285.545.285h15.368c.269 0 .467-.104.544-.287.096-.233-.011-.544-.278-.811-2.64-2.614-7.496-4.311-7.545-4.327a2.109 2.109 0 0 0-.406-.09c-.064 0-.274.05-.419.094-.037.013-4.893 1.711-7.532 4.323-.267.269-.373.58-.277.813z"/><path fill-rule="evenodd" clip-rule="evenodd" fill="#E00819" d="M13.778 13.973c.445.244.898.509 1.347.796l-.048-1.577-1.302.073.003.708z"/><path fill-rule="evenodd" clip-rule="evenodd" fill="#1587C9" d="M9.919 20.064c.418.226.794.559 1.041.913.361.522 1.092 1.835.734 3.522l1.262 1.244c.469.469-.277 1.193-.614 1.653h-.903s.328-.429.107-.82c-.149-.276-.686-.366-.686-.366s.254-.566-.152-.699c0 0 .783-2.027-.082-3.875-.279-.59-.721-1.148-1.416-1.257a1.355 1.355 0 0 0-.509.067c-.623.216-.938.662-1.224 1.272-.85 1.792-.026 3.792-.026 3.792-.411.134-.159.7-.159.7s-.53.09-.686.367c-.213.392.112.82.112.82h-.903c-.226-.31-.957-1.175-.719-1.725.291-.532 1.372-1.172 1.372-1.172-.331-1.548.26-2.781.642-3.379.293-.459.804-.888 1.354-1.127.562-.24.906-.225 1.455.07z"/><path fill="#1D1E1C" d="M12.417 27.548H11.14l.182-.239c.002-.005.264-.358.096-.658-.096-.178-.461-.273-.58-.294l-.191-.031.08-.178c.027-.064.1-.281.043-.406-.01-.026-.035-.064-.105-.089l-.149-.048.058-.148c.006-.019.748-1.991-.08-3.756-.33-.694-.77-1.09-1.304-1.173l-.062-.002c-.116 0-.241.021-.379.064-.569.195-.857.602-1.136 1.191-.813 1.715-.032 3.653-.023 3.673l.062.15-.154.048c-.074.024-.1.064-.111.094-.053.116.006.32.043.401l.078.178-.189.031c-.12.021-.484.118-.58.294-.164.302.098.653.102.658l.182.239H5.741l-.129-.173c-.314-.415-.899-1.188-.654-1.763.264-.483 1.068-1.015 1.342-1.186-.295-1.554.299-2.785.684-3.387.314-.492.846-.934 1.421-1.182.637-.273.972-.254 1.585.075.433.233.832.581 1.092.958.348.502 1.106 1.842.775 3.559.145.142.559.55 1.204 1.188.489.485-.031 1.135-.41 1.608-.067.085-.134.166-.188.239l-.046.065zm-.725-.3h.576c.045-.061.096-.123.148-.189.4-.498.708-.936.434-1.209a490.896 490.896 0 0 0-1.262-1.243l-.059-.059.017-.079c.349-1.642-.381-2.929-.71-3.408a2.912 2.912 0 0 0-.99-.864c-.529-.288-.781-.299-1.324-.065-.514.224-1.008.634-1.288 1.069-.368.577-.941 1.769-.62 3.269l.022.104-.093.054c-.01.007-1.049.627-1.316 1.117-.172.399.385 1.135.623 1.449l.04.055h.576c-.08-.189-.14-.471.011-.744.127-.229.428-.348.621-.401-.033-.132-.058-.319.014-.478a.444.444 0 0 1 .152-.188c-.171-.481-.676-2.196.076-3.783.303-.642.642-1.117 1.312-1.351.21-.064.39-.089.571-.072.648.1 1.162.552 1.537 1.34.769 1.639.291 3.383.133 3.866a.446.446 0 0 1 .15.186c.07.16.046.346.012.479.195.054.498.173.623.403.153.271.093.553.014.742z"/></svg>