<svg id="Capa_1" xmlns="http://www.w3.org/2000/svg" version="1.1" viewBox="0 0 2740 722.41" height="32" width="121"><defs><style>.st2{fill:#1d1d1b}</style></defs><path d="M1537.48 361.19c0-166.45-133.79-301.37-298.81-301.37-165.04 0-298.81 134.92-298.81 301.37 0 166.48 133.77 301.4 298.81 301.4 165.02 0 298.81-134.92 298.81-301.4" style="fill:#ffe800"/><path class="st2" d="M1083.58 343.19c-2.2-8.67-5.75-16.4-10.72-23.2-4.96-6.86-11.35-12.34-19.07-16.38-7.81-4.08-16.89-6.1-27.15-6.1-9.2 0-17.64 1.65-25.28 4.98-7.59 3.31-14.2 7.89-19.69 13.71-5.52 5.78-9.75 12.7-12.74 20.57-2.98 7.89-4.43 16.42-4.43 25.51 0 9.37 1.41 18.01 4.32 25.92 2.89 7.89 7.02 14.73 12.39 20.47 5.38 5.77 11.97 10.23 19.66 13.32 7.72 3.07 16.31 4.61 25.77 4.61 13.59 0 25.46-3.1 35.25-9.5 4.97-3.23 9.3-7.54 12.93-12.85 3.64-5.25 6.59-11.53 8.91-18.79l.83-2.51s.43-1.13-.9-1.13h-31.29c-1.61 0-1.77.95-1.77.95l-.3 1.06c-.38 1.39-1.16 2.78-2.39 4.24-1.19 1.45-2.89 3-5.07 4.5-4.16 2.86-9.09 4.32-15.07 4.32-4.25 0-7.96-.53-11.06-1.6-3.1-1.06-5.63-2.6-7.72-4.63-2.03-2.02-3.67-4.65-4.88-8.12-.96-2.74-1.62-6.03-1.95-9.77h82.28c1.35 0 1.37-1.54 1.37-1.54l.07-1.1c.13-2.06.18-4.1.18-6.14 0-7.17-.8-14.09-2.49-20.78m-76.46-7.82c1.75-2.22 4.1-4.12 7.19-5.71 2.86-1.48 6.65-2.31 11.46-2.31 3.64 0 6.74.49 9.29 1.44 2.52.92 4.51 2.26 6.07 4.03 2.86 3.14 5.12 7.75 6.63 13.9h-45.4c.22-1.27.57-2.65.96-4.14.74-2.49 1.98-4.87 3.8-7.19"/><path class="st2" d="m1202.7 422.56-44.18-64.17 39.88-57.3s.53-.73-.87-.73h-40.37c-1.27 0-1.64.75-1.64.75l-18.11 27.4-18.25-27.28s-.62-.87-1.93-.87h-41.5c-1.17 0-.55.82-.55.82l2.8 4.05 37.03 53.84-43.15 63.62s-.79 1.2.63 1.2h40.49c1.65 0 2.26-1.39 2.26-1.39l21.76-33.08 21.69 33.06s.87 1.41 2.28 1.41h41.08c1.56 0 .65-1.33.65-1.33m51.07-122.23h-46.62c-1.62 0-1.35 1.12-1.35 1.12l6.69 120.95s.13 1.49 1.4 1.49h32.98c1.4 0 1.39-1.54 1.39-1.54l6.7-120.66s.04-1.36-1.19-1.36m88.71 27.76s1.25-.05 1.25-1.49v-25.02s.05-1.21-1.31-1.21h-22.1v-33.82s.09-1.4-1.29-1.4h-35.51c-1.4 0-1.29 1.37-1.29 1.37v33.85h-17.91c-1.64 0-1.44 1.08-1.44 1.08v25.26s-.17 1.39 1.2 1.39h18.15v66.12c0 6.24 1.04 11.49 3.3 15.76 2.22 4.1 5.28 7.36 9.16 9.61 3.75 2.19 8.04 3.66 12.76 4.34 4.59.71 9.45 1.08 14.56 1.08 3.18 0 6.43-.08 9.78-.24 3.4-.13 6.53-.46 9.38-.9l1.36-.25s1.21-.03 1.21-1.56v-28.82c0-1.52-1.25-1.02-1.25-1.02l-2.43.49c-1.37.28-2.86.49-4.39.65-1.56.13-3.19.21-4.91.21-2.51 0-4.57-.24-5.99-.58-1.45-.38-2.28-.87-2.61-1.27-.38-.33-.87-1.16-1.21-2.61-.37-1.46-.61-3.5-.61-6.04v-54.96h22.16Zm125.54 7.57c-3-8.02-7.25-14.93-12.84-20.61-5.57-5.69-12.3-10.1-20.08-13.2-7.83-3.11-16.5-4.65-26-4.65-9.47 0-18.13 1.53-25.9 4.65-7.69 3.1-14.39 7.51-19.94 13.2-5.55 5.69-9.86 12.59-12.84 20.61-3 8.02-4.46 16.92-4.46 26.63 0 9.69 1.46 18.54 4.46 26.52 2.98 7.94 7.31 14.79 12.84 20.46 5.57 5.7 12.25 10.1 19.99 13.09 7.76 3.05 16.4 4.53 25.85 4.53 9.48 0 18.15-1.48 25.98-4.53 7.8-3 14.53-7.39 20.1-13.09 5.59-5.66 9.83-12.51 12.84-20.45 2.98-7.98 4.47-16.84 4.47-26.52 0-9.71-1.49-18.61-4.47-26.63m-46.82 58.13c-3.1 1.77-7.09 2.76-12.1 2.76s-8.95-.99-11.96-2.75c-3.17-1.87-5.66-4.33-7.59-7.44-1.98-3.26-3.38-6.9-4.22-11.02-.86-4.26-1.31-8.63-1.31-13.1 0-4.49.45-8.91 1.31-13.25.84-4.21 2.24-7.84 4.21-10.99 1.91-3.06 4.43-5.5 7.65-7.48 3-1.82 6.92-2.84 11.9-2.84 5.01 0 8.97 1.02 12.05 2.84 3.3 1.99 5.83 4.45 7.76 7.48 1.97 3.15 3.38 6.78 4.2 10.99.87 4.34 1.29 8.76 1.29 13.25 0 4.47-.42 8.84-1.29 13.1-.82 4.12-2.23 7.77-4.2 11.02-1.93 3.1-4.45 5.54-7.71 7.43"/><path d="M1254.65 453.34c0-12.73-10.26-23.04-22.86-23.04s-22.83 10.31-22.83 23.04c0 12.71 10.23 23.02 22.83 23.02 12.6 0 22.86-10.31 22.86-23.02" style="fill:#e32213"/><path class="st2" d="m1031.27 266.03-17.91 22.63s-1.1 1.31.32 1.31h21.14c1.77 0 2.68-.88 2.68-.88l30.05-23.05s1.07-.95-.33-.95h-33.8c-1.58 0-2.15.95-2.15.95m470.98 46.38c0 2.73-.66 5.25-2.01 7.57-1.33 2.35-3.12 4.18-5.49 5.52-2.3 1.36-4.8 2.02-7.46 2.02-2.69 0-5.17-.66-7.5-2.02-2.32-1.33-4.13-3.17-5.46-5.52a14.973 14.973 0 0 1-2.02-7.57c0-2.68.69-5.19 2.02-7.54 1.33-2.36 3.14-4.2 5.46-5.53 2.32-1.35 4.8-2.01 7.5-2.01 2.65 0 5.16.66 7.46 2.01 2.37 1.33 4.16 3.17 5.49 5.53 1.35 2.35 2.01 4.86 2.01 7.54m-2.86 0c0-3.35-1.19-6.24-3.55-8.63-2.34-2.38-5.21-3.56-8.54-3.56-3.37 0-6.2 1.19-8.55 3.56-2.35 2.39-3.54 5.28-3.54 8.63 0 3.38 1.19 6.27 3.54 8.64 2.35 2.35 5.19 3.55 8.55 3.55 3.33 0 6.2-1.2 8.54-3.55 2.36-2.38 3.55-5.27 3.55-8.64m-18.9-8.08h7.17c2.02 0 3.48.42 4.41 1.27.94.79 1.37 1.89 1.37 3.33 0 1.04-.36 1.99-1.06 2.8-.69.77-1.75 1.36-3.27 1.7.61.28 1.06.5 1.36.75.38.4.82.94 1.25 1.65.05.04.9 1.61 2.6 4.68h-4.69c-1.57-3.09-2.6-4.92-3.1-5.53-.51-.59-1.06-.9-1.58-.9-.1 0-.28.05-.46.09v6.33h-4v-16.18Zm4 6.9h1.69c1.15 0 1.98-.2 2.47-.61.46-.36.67-.84.67-1.45 0-.57-.21-1.06-.67-1.41-.45-.4-1.21-.59-2.28-.59h-1.87v4.06ZM277.76 297.86h24.07v22.17h-24.07v59.74c0 11.2 2.77 14.01 13.88 14.01 3.47 0 6.72-.24 10.19-.94v25.9c-5.56.94-12.74 1.16-19.21 1.16-20.13 0-37.72-4.66-37.72-28.7v-71.18H225v-22.17h19.9v-36.17h32.86v36.17Zm33.78 37.11c1.85-31.04 29.39-40.37 56.22-40.37 23.85 0 52.54 5.36 52.54 34.3v62.79c0 10.97 1.15 21.93 4.16 26.83h-33.32c-1.15-3.73-2.07-7.69-2.31-11.67-10.41 10.97-25.68 14.94-40.26 14.94-22.67 0-40.72-11.44-40.72-36.17 0-27.3 20.36-33.85 40.72-36.65 20.14-3.03 38.88-2.34 38.88-15.86 0-14.24-9.71-16.34-21.29-16.34-12.5 0-20.6 5.13-21.75 18.2h-32.86Zm75.9 24.51c-5.56 4.9-17.13 5.13-27.3 7.01-10.19 2.1-19.44 5.6-19.44 17.74 0 12.37 9.49 15.4 20.13 15.4 25.69 0 26.62-20.53 26.62-27.78v-12.37Zm53.67-61.62h31.24v22.41h.46c6.02-15.18 22.22-25.68 38.18-25.68 2.32 0 5.09.48 7.18 1.17v30.8c-3.01-.7-7.87-1.16-11.8-1.16-24.07 0-32.4 17.5-32.4 38.75v54.37h-32.86V297.86Zm68.49 134.9c2.09.7 4.39.94 7.18.94 6.7 0 12.72-1.64 12.72-10.74V297.87h32.86V424.6c0 24.74-9.03 36.41-42.11 36.41-3.47 0-7.18-.46-10.65-.94v-27.3Zm52.76-153.57H529.5v-27.3h32.86v27.3Zm46.27 87.06c.94 21 11.11 30.56 29.4 30.56 13.18 0 23.83-8.17 25.91-15.64h28.93c-9.25 28.48-28.93 40.62-55.99 40.62-37.72 0-61.09-26.14-61.09-63.49 0-36.17 24.76-63.71 61.09-63.71 40.72 0 60.39 34.55 58.08 71.66h-86.32Zm53.46-21.01c-3.01-16.8-10.19-25.67-26.14-25.67-20.82 0-26.84 16.34-27.32 25.67h53.46Zm84.68-47.38h24.06v22.17h-24.06v59.74c0 11.2 2.77 14.01 13.88 14.01 3.47 0 6.7-.24 10.18-.94v25.9c-5.54.94-12.72 1.16-19.2 1.16-20.13 0-37.72-4.66-37.72-28.7v-71.18h-19.9v-22.17h19.9v-36.17h32.86v36.17Zm33.78 37.11c1.85-31.04 29.39-40.37 56.23-40.37 23.83 0 52.52 5.36 52.52 34.3v62.79c0 10.97 1.16 21.93 4.17 26.83h-33.32c-1.16-3.73-2.08-7.69-2.32-11.67-10.41 10.97-25.68 14.94-40.26 14.94-22.67 0-40.73-11.44-40.73-36.17 0-27.3 20.36-33.85 40.73-36.65 20.14-3.03 38.88-2.34 38.88-15.86 0-14.24-9.71-16.34-21.29-16.34-12.5 0-20.6 5.13-21.75 18.2h-32.86Zm75.9 24.51c-5.56 4.9-17.12 5.13-27.31 7.01-10.19 2.1-19.44 5.6-19.44 17.74 0 12.37 9.49 15.4 20.14 15.4 25.68 0 26.61-20.53 26.61-27.78v-12.37Z"/><path d="M2070.45 585.76c-119.12 0-228.7-22.24-308.59-62.66-86.38-43.64-135.91-106.91-135.91-177.99 0-66.36 49.47-127.87 135.58-173.2 82.81-43.55 192.51-67.52 308.92-67.52s228.68 22.25 308.65 62.67c86.38 43.7 135.9 106.9 135.9 178.04 0 66.32-49.45 127.8-135.6 173.16-82.78 43.55-192.52 67.5-308.94 67.5Z" style="fill:#7db828"/><path d="M2452.01 388.2c-3.19-2.93-8.12-2.74-11.04.44-4.21 4.57-9.93 6.72-15.62 5.94-6.11-.95-11.42-5.21-14.86-12.1-.73-1.58-1.39-3.18-2.01-4.81 2.63-9.65 3.09-19.04 3.09-24.79 0-22.51-5.04-25.61-10.52-25.61-2.62 0-5.49 1.29-7.79 4.66-11.1-5.46-23.3-6.32-34.14-1.42-12.5 5.61-21.88 17.74-24.49 31.62-1.6 8.65-1.28 16.83.91 24.07-9.05 8.04-21.45 10.59-30.48 6.9-1.82-.69-3.58-1.68-5.35-2.96 9.27-28.46 12.2-65.25 8.31-106.84-3.18-34.04-13.11-53.49-27.23-53.49-.2 0-.39.03-.54.03-14.3.49-23.04 20.54-23.98 55.1-1.47 51.2 7.61 89.57 25.25 109.78-4.13 10.07-9.28 18.52-15.39 25.21-9.84 10.84-21.76 16.31-35.37 16.31s-26.18-5.65-35.9-16.39c-5.32-5.91-10.83-14.35-15.22-26.39 16.82-19.11 28.02-53.64 30.42-98.27 1.9-35.26-7.08-59.7-22.36-60.87-15.77-1.23-26.8 21.53-31.01 63.95-3.89 39.95-.95 69.28 5.09 90.74-4.94 3.61-10.28 5.57-15.87 5.57-9.34 0-17.37-3.88-22.56-11.83-2.63-4.05-4.59-8.71-5.91-13.57 2.18-9.53 3.09-19 3.09-26.04 0-5.65 0-20.71-10.67-20.71-7.71 0-11.07 7.56-11.07 24.58 0 5.22.43 13.46 2.51 22.35-1.77 6.3-4.23 12.39-7.56 17.23-4.13 5.98-8.73 8.88-14.24 8.88-6.46 0-11.19-2.5-14.9-7.87-2-2.9-3.49-6.39-4.69-10.13 2.75-10.19 3.24-20.12 3.24-26.01 0-17.85-3.42-25.81-11.08-25.81-3.78 0-10.77 0-10.77 28.55 0 8.77.98 18.12 2.85 24.22-2.49 8.38-9.68 16.46-19.49 16.46-15.68 0-19.1-15.6-19.93-22.28-1.27-11.62-.34-19.99.25-25.57.73-6.05 1.22-11.33-3.02-15.04-4.15-3.65-9.51-2.33-11.2-1.87-11.42 2.86-21.38 2.46-28.3 1.12-1.37-3.82-2.98-6.88-4.74-8.9-4.02-4.5-9.83-5.35-14.44-2.17-6.37 4.4-6.53 10.58-4.74 14.55 1.7 3.74 5.61 6.75 10.92 9.01 1.93 12.51 1.44 32.38-8.47 43.82-4.37 5.04-10.79 7.78-17.1 7-6.3-.85-11.47-5-14.94-12.1-.77-1.58-1.45-3.18-2.04-4.81 2.6-9.65 3.11-19.04 3.11-24.75 0-22.51-5.06-25.65-10.56-25.65-2.73 0-5.66 1.6-7.74 4.66-11.32-5.46-23.3-6.32-34.17-1.42-12.53 5.61-21.88 17.74-24.49 31.62-1.64 8.8-1.27 17.13 1.01 24.41.42 1.42 1 2.76 1.6 4.12-8.63 14.01-30.64 24.32-50.65 24.32-24.57 0-42.44-11.14-52.66-32.59-12.77-26.85-9.6-62.4 9.29-85.6 18.54-22.78 42.27-28.17 58.19-23.52 6.24 1.81 17.02 6.94 18.61 20.82 1.25 10.39-3.69 22.36-11.97 29.13-3.39 2.76-3.97 7.72-1.17 11.14 2.77 3.41 7.75 3.93 11.2 1.19 12.45-10.16 19.64-27.57 17.77-43.34-1.92-16.53-13.2-29.3-30-34.21-21.49-6.25-51.73.17-74.97 28.76-22.94 28.12-28.08 70.3-12.55 102.95 12.77 26.88 37.65 42.3 68.26 42.3 23.9 0 47.68-11.69 60.19-28.39 6.08 5.21 13.76 8.13 21.91 8.13 13.29 0 24.11-5.5 31.62-16 5.79 8.12 13.82 13.12 23.18 14.34 11.58 1.5 23.08-3.22 30.89-12.24 11.26-13.04 14.3-33.59 12.85-50.35 6.59.65 13.72.49 20.89-.59 1.91-.27 2.66.28 2.41 2.15-.52 6.06-.99 14.37.25 25.29 2.52 22.33 16.05 36.17 35.45 36.17 11.28 0 20.09-4.91 26.83-14.31 6.61 9.79 16.16 14.95 27.99 14.95 9.01 0 21.09-3.77 30.19-20.68 8.13 12.94 21.15 19.73 36.23 19.73 7.51 0 14.6-2.09 21.13-6.05 4.91 11.55 10.65 20 16.22 26.16 12.77 14.1 29.18 21.56 47.5 21.56s34.21-7.39 46.96-21.44c6.34-6.9 11.78-15.47 16.26-25.36 1.68.94 3.37 1.8 5.15 2.52 13.94 5.67 30.54 2.62 43.49-8.07a33.791 33.791 0 0 0 26.05 12.21c13.37 0 24.2-5.5 31.64-16.02 5.71 7.89 13.76 13.01 22.85 14.31 10.68 1.55 21.68-2.48 29.32-10.77 2.93-3.18 2.73-8.16-.46-11.07Zm-565.8-1.88c-4.52 6.6-10.81 9.78-19.08 9.78-5.51 0-10.52-2.37-14.07-6.61-4.83-5.82-6.48-14.53-4.61-24.48 1.7-8.93 7.66-16.67 15.54-20.22 3.12-1.42 6.39-2.08 9.7-2.08 4.65 0 9.54 1.33 14.43 3.97-.89 8.92-.5 20.21 2.39 30.98-1.07 3.13-2.51 6.08-4.31 8.67Zm286.13-86.53c2.71-27.79 7.65-40.36 11.15-45.81 1.79-2.91 4.44-2.77 5.93.26 2.97 6.13 6.17 18.98 5 40.11-1.9 34.73-9.22 62.85-20.05 80.34-3.82-18.56-5.2-42.9-2.03-74.9Zm115.3 76.35c-9.92-16.83-16.98-46.03-15.75-90.77.52-19.08 3.47-29.73 5.99-35.18 1.54-3.18 4.29-3.29 6.04-.28 2.92 5.27 6.7 15.81 8.51 34.85 3.34 35.24 1.57 66.48-4.78 91.39Zm100.12 10.19c-4.46 6.6-10.73 9.77-19.09 9.77-5.49 0-10.48-2.37-14.05-6.61-4.82-5.82-6.48-14.53-4.6-24.48 1.7-8.93 7.67-16.67 15.58-20.22 3.07-1.42 6.34-2.08 9.71-2.08 4.67 0 9.45 1.33 14.37 3.97-.91 8.92-.42 20.21 2.45 30.96-1.11 3.15-2.54 6.09-4.37 8.7Z" style="fill:#fff"/></svg>