<svg width="58" height="32" viewBox="0 0 360 198" fill="none" xmlns="http://www.w3.org/2000/svg"><path d="M.196 81.647c-.44 8.764 0 17.703 0 26.467v84.397h47.549v-77.298c0-24.101-.177-45.485 0-49.867.88-20.858 6.604-34.53 17.346-45.66-.792 0-1.673-.088-2.465-.088-23.158 0-44.908 13.234-55.474 33.654C2.397 62.279.724 71.919.196 81.647Z" fill="#820AD1"/><path d="M109.205.93c-17.787 0-32.932 6.924-44.29 18.756 35.397 0 58.379 24.013 59.612 62.224.264 8.764.352 55.738.352 55.738v54.863h47.549v-74.143c0-22.436.176-41.804-1.409-55.213C166.704 25.908 143.722.93 109.205.93Zm250.599 115.423c.441-8.764 0-17.703 0-26.467V5.489h-47.548v77.298c0 24.101.176 45.485 0 49.867-.881 20.858-6.604 34.53-17.347 45.66.793 0 1.673.088 2.466.088 23.158 0 44.907-13.234 55.473-33.654 4.755-9.027 6.428-18.579 6.956-28.395Z" fill="#820AD1"/><path d="M250.795 197.069c17.787 0 32.932-6.924 44.291-18.755-35.398 0-58.38-24.013-59.612-62.224-.264-8.764-.441-30.499-.441-55.739V5.49l-47.548.088V79.72c0 22.435-.177 41.804 1.408 55.213 4.403 37.246 27.385 62.136 61.902 62.136Z" fill="#820AD1"/></svg>