<svg version="1.0" xmlns="http://www.w3.org/2000/svg" width="136" height="32" viewBox="0 0 1250.000000 293.000000" preserveAspectRatio="xMidYMid meet">
<metadata>
Created by potrace 1.16, written by Peter Selinger 2001-2019
</metadata>
<g transform="translate(0.000000,293.000000) scale(0.100000,-0.100000)" fill="#000000" stroke="none">
<path d="M6335 2711 c-74 -34 -105 -85 -105 -173 0 -103 77 -178 184 -178 89
0 155 53 175 141 34 153 -113 275 -254 210z"></path>
<path d="M11960 2329 l0 -321 -32 33 c-53 53 -146 107 -232 136 -70 23 -98 27
-206 28 -105 0 -136 -4 -195 -23 -228 -76 -380 -253 -435 -507 -17 -75 -14
-269 5 -356 9 -41 37 -116 62 -168 62 -129 162 -231 284 -289 103 -49 162 -62
287 -62 166 0 297 49 404 150 l58 56 0 -93 0 -93 145 0 145 0 0 915 0 915
-145 0 -145 0 0 -321z m-285 -396 c225 -78 340 -349 254 -600 -102 -299 -456
-378 -668 -148 -136 147 -155 424 -41 590 104 151 290 216 455 158z"></path>
<path d="M7495 2560 c-393 -44 -694 -325 -761 -712 -21 -117 -14 -289 15 -403
40 -152 138 -317 251 -419 375 -336 1026 -282 1305 109 44 62 95 159 95 183 0
9 -41 12 -173 12 l-172 0 -24 -45 c-30 -57 -114 -136 -179 -169 -89 -45 -164
-59 -282 -53 -167 8 -288 62 -391 174 -95 105 -147 238 -156 403 -18 338 157
592 452 655 226 48 451 -36 550 -204 l30 -51 173 0 c94 0 172 4 172 9 0 20
-35 90 -77 155 -109 169 -283 287 -496 335 -99 23 -237 32 -332 21z"></path>
<path d="M210 1680 l0 -860 150 0 150 0 0 340 0 340 103 0 102 -1 195 -339
194 -340 174 0 c135 0 173 3 169 13 -2 6 -97 166 -210 354 l-205 342 51 17
c159 51 272 169 321 333 20 67 21 217 2 287 -36 135 -129 246 -260 309 -124
59 -173 65 -577 65 l-359 0 0 -860z m739 603 c112 -36 172 -126 172 -258 0
-94 -27 -161 -87 -214 -67 -59 -125 -71 -342 -71 l-182 0 0 280 0 280 194 0
c153 0 205 -3 245 -17z"></path>
<path d="M2011 2195 c-210 -48 -378 -199 -455 -413 -70 -196 -57 -440 34 -627
84 -173 230 -295 410 -341 91 -23 281 -15 367 16 71 25 160 79 216 132 l37 35
0 -88 0 -89 150 0 150 0 0 685 0 685 -150 0 -150 0 0 -89 0 -88 -37 35 c-59
56 -151 110 -222 133 -87 27 -261 34 -350 14z m347 -267 c110 -41 204 -145
242 -267 27 -85 27 -226 1 -310 -69 -222 -281 -345 -487 -283 -219 67 -341
293 -294 543 49 258 299 405 538 317z"></path>
<path d="M3800 2203 c-104 -17 -234 -84 -312 -161 l-48 -46 0 97 0 97 -145 0
-145 0 0 -1010 0 -1010 145 0 145 0 0 416 0 416 52 -47 c126 -113 263 -160
451 -153 175 7 297 59 414 178 288 291 262 858 -52 1097 -119 91 -250 134
-400 131 -44 0 -91 -3 -105 -5z m187 -273 c179 -62 286 -243 270 -458 -8 -103
-29 -169 -80 -244 -47 -69 -138 -138 -210 -160 -68 -21 -193 -15 -260 11 -131
52 -237 197 -257 352 -43 349 230 604 537 499z"></path>
<path d="M5323 2195 c-84 -18 -210 -86 -272 -145 l-51 -49 0 95 0 94 -145 0
-145 0 0 -1010 0 -1010 145 0 145 0 0 416 0 416 56 -51 c117 -104 246 -151
414 -151 189 0 316 52 445 184 139 140 197 292 197 521 1 155 -16 235 -72 350
-110 227 -320 356 -575 354 -44 0 -108 -7 -142 -14z m217 -263 c110 -36 205
-131 252 -251 29 -76 32 -250 4 -331 -48 -143 -143 -240 -274 -280 -81 -25
-143 -25 -224 0 -205 63 -325 279 -288 515 42 269 285 429 530 347z"></path>
<path d="M8990 2195 c-181 -41 -334 -164 -420 -340 -60 -120 -74 -187 -74
-345 0 -160 16 -234 77 -360 33 -68 58 -102 127 -171 139 -139 258 -185 465
-177 168 7 280 51 391 154 l44 40 0 -88 0 -88 150 0 150 0 0 685 0 685 -150 0
-150 0 0 -89 0 -88 -37 35 c-59 56 -151 110 -222 133 -87 28 -260 34 -351 14z
m348 -267 c101 -38 191 -129 234 -238 30 -77 37 -244 13 -326 -25 -88 -63
-150 -127 -209 -184 -170 -461 -125 -602 98 -31 49 -57 139 -63 218 -26 329
255 564 545 457z"></path>
<path d="M10695 2196 c-84 -20 -147 -56 -212 -122 l-63 -62 0 89 0 89 -145 0
-145 0 0 -685 0 -685 145 0 145 0 0 348 c0 501 14 591 103 667 53 45 114 66
220 72 l87 6 0 148 0 149 -42 -1 c-24 0 -66 -6 -93 -13z"></path>
<path d="M6260 1505 l0 -685 150 0 150 0 0 685 0 685 -150 0 -150 0 0 -685z"></path>
</g>
</svg>
